<svg width="340" height="70" viewBox="0 0 340 70" xmlns="http://www.w3.org/2000/svg" xmlns:xlink="http://www.w3.org/1999/xlink"><defs><path id="a" d="M0 0h88.028v69.653H0z"/><path id="c" d="M0 0h87.318v68.618H0z"/></defs><g fill="none" fill-rule="evenodd"><g transform="translate(82.524 .347)"><mask id="b" fill="#fff"><use xlink:href="#a"/></mask><path d="M31.413 51.813c2.761 0 5.523.028 8.284-.013 1.227-.019 1.718-.582 1.885-1.804.207-1.503.03-3.278.793-4.433.999-1.511-.025-3.284 1.221-4.68.568-.634-.093-1.404-1.083-1.406-5.292-.012-10.585-.007-15.878-.004-.685 0-1.72-.241-1.976.093-.404.53-.244 1.46-.401 2.203-.264 1.252-.311 2.662-.958 3.693-.877 1.4.307 3.178-1.094 4.362-.114.096.013.443-.02.666-.149 1.001.2 1.38 1.289 1.348 2.644-.077 5.292-.025 7.938-.025zm.647-26.055c4.614 0 9.228-.01 13.843.01.786.004 1.207-.061 1.252-1.064.095-2.153.45-4.274 1.319-6.3.442-1.03-.08-1.554-1.359-1.556-6.576-.008-13.15-.003-19.727-.003-1.153 0-2.314-.071-3.458.032-.494.045-1.143.326-1.4.71-1.61 2.41-3.056 4.929-4.719 7.3-.602.86-.299.865.404.867 4.616.009 9.23.004 13.845.004zM54.056 4.503c6.345 0 12.691-.047 19.035.026 2.049.024 3.813-.645 5.68-1.339 2.593-.966 5.048-2.342 7.827-2.809.45-.076.881-.251 1.321-.381.015.451.229 1.126.012 1.313-.957.829-.514 1.88-.676 2.837-.143.834-.529 1.629-.66 2.463-.497 3.188-1.228 6.323-2.114 9.422-.09.315-.469.734-.759.773-.793.107-1.61.037-2.418.037-6.345 0-12.69.023-19.035-.024-1.06-.008-1.027.512-1.397 1.288-.821 1.722-.787 3.576-1.188 5.325-.67 2.925-1.227 5.867-2.01 8.78-.382 1.423-.554 2.97-.85 4.459-.297 1.492-.004 3.37-.826 4.421-1.054 1.348-.017 2.819-1.027 4.105-.821 1.043-.064 2.7-.846 4.093-.65 1.16-.555 2.733-.776 4.125-.24 1.503-.068 3.245-.802 4.45-.79 1.298.054 2.96-1.277 3.951.226 2.459-.943 4.647-1.35 6.979-.139.788-.474.855-1.11.852a763.004 763.004 0 0 0-10.383.005c-.711.005-1.081-.175-1.01-.935.032-.34-.07-.706.022-1.023.175-.607.445-1.186.676-1.777-.858-.13-1.716-.374-2.575-.376-10.499-.025-20.997-.016-31.496-.016-.807 0-1.617-.034-2.422.008-.803.043-1.065-.385-.88-1.034.65-2.282.941-4.65 1.573-6.91.237-.848.334-1.68.504-2.521.167-.832.4-1.66.7-2.453.121-.318.474-.729.766-.767.794-.107 1.611-.029 2.418-.039.914-.012 2.105.292 2.66-.16.49-.4.091-1.72.4-2.514.783-2.008 1.138-4.111 1.633-6.183.623-2.606 1.2-5.222 1.793-7.834.237-1.047.478-2.093.678-3.146.035-.18-.125-.397-.195-.597-.164.072-.396.1-.479.224-.658.994-1.635 1.039-2.7 1.027-3.23-.036-6.46-.013-9.69-.013-.848-.001-.945-.555-.655-1.106.398-.76.982-1.422 1.44-2.154 3.874-6.179 7.69-12.393 11.622-18.535 1.852-2.894 3.363-5.99 5.423-8.776.438-.591.567-.982 1.328-.978 4.153.018 8.306.004 12.46.012.812.001 1.037.21.345.876-.281.27-.332.768-.512 1.15-.552 1.172-.468 1.383.69 1.392 2.653.02 5.306.007 7.96.007h13.152z" fill="#FFF" mask="url(#b)"/></g><g transform="translate(0 .003)"><mask id="d" fill="#fff"><use xlink:href="#c"/></mask><path d="M45.93 2.79c9.455 0 18.91-.016 28.366.015 1.573.005 3.128-.02 4.55-.715 1.942-.948 4.276-.65 6.107-1.965.306-.22.889-.086 1.343-.072.64.02 1.627-.114.529.912.122 2.984-1.515 5.649-1.585 8.635-.02.857-.386 1.899-.693 2.77-.334.948-.594 1.831-.619 2.83-.022.914-.801.604-1.294.605-6.918.018-13.837.012-20.756.012-1.615 0-3.23.023-4.844-.007-1.33-.025-2.215.366-2.187 1.887.005.29-.232.583-.343.88-.464 1.238-.425 1.34.787 1.348 3.23.019 6.458.023 9.687-.007.739-.006 1.02.24.973.972-.083 1.305-.145 2.538-.605 3.86-.806 2.319-1.018 4.841-1.481 7.278-.182.96-.633 1.632-1.744 1.618-.806-.01-1.614-.002-2.421-.002-13.031 0-26.062.01-39.093-.017-1.174-.003-2.088.036-1.746 1.573-1.457 2.369-1.1 5.204-2.026 7.73-.513 1.403-.097 3.25-.85 4.428-.913 1.432-.046 3.038-1.087 4.399-.514.67-.084 1.98-.377 2.909-.17.538-.79.881.283.914.921.028 1.844.005 2.767.005 13.03 0 26.061.004 39.092-.003 1.958 0 1.743-.051 1.637 1.638-.116 1.854-.109 3.826-.788 5.493-.407.995-.414 1.893-.588 2.845-.171.939-.227 2.108-.82 2.696-.487.484-1.686.346-2.57.347-17.067.016-34.133.014-51.2.01C.022 68.61-.31 68.373.219 66.115c.517-2.204.664-4.54 1.456-6.593.637-1.65.433-3.378 1.184-4.995.618-1.328.118-3.243.88-4.407.939-1.436-.135-3.172 1.148-4.35-.055-2.863 1.11-5.508 1.627-8.266.466-2.486.603-5.105 1.764-7.475.616-1.257.016-2.743.805-4.134.655-1.154.537-2.734.782-4.12.261-1.481.63-1.818 2.204-1.836 2.651-.032 5.304-.01 7.956-.01 6.342 0 12.685-.026 19.026.026 1.106.01 1.3-.375 1.3-1.362-.002-2.765.044-2.774-2.613-2.775-7.956-.005-15.913-.002-23.87-.002-.692 0-1.403.09-2.066-.047-.243-.05-.617-.753-.516-.966 1.162-2.458 1.093-5.22 2.01-7.74.4-1.101.448-2.324.747-3.468.082-.312.466-.73.758-.77.792-.106 1.609-.036 2.416-.036H45.93z" fill="#FFF" mask="url(#d)"/></g><path d="M267.025 68.616c-3.574 0-7.149.01-10.723-.005-1.347-.006-1.557-.215-1.329-1.604.383-2.336.976-4.647 1.506-6.939.433-1.864.656-3.793 1.233-5.635.319-1.02.445-2.1.734-3.13.062-.219.458-.49.702-.492 2.768-.035 5.536-.044 8.302.017.227.005.66.598.625.871-.137 1.059-.478 2.091-.638 3.149-.129.858.272 1.842-.708 2.454.99.114 1.98.226 2.969.344.828.099 1.165-.132 1.226-1.082.106-1.617.085-3.43.832-4.769.856-1.536-.026-3.283 1.146-4.705.475-.577-.13-1.134-1.062-1.122-3.805.05-7.61.022-11.416.019-.339 0-.683-.007-1.013-.07-.062-.012-.136-.32-.095-.46.568-1.972.783-4.035 1.338-5.976.238-.831.45-1.647.534-2.505.147-1.486.576-1.937 2.091-1.948 3.69-.029 7.38-.038 11.07.01.965.012 1.212-.2 1.452-1.236.623-2.697.825-5.477 1.928-8.103.654-1.558.561-3.43.763-5.166.174-1.5.57-1.938 2.084-1.962 2.075-.033 4.152-.032 6.226.002.891.015 1.956-.11 2.603.324.392.263.175 1.474.162 2.258-.018 1.174.848.824 1.444.826 7.841.015 15.682.01 23.523.01.577 0 1.154-.003 1.73 0 2.533.013 2.982.308 2.332 2.612-.878 3.112-1.543 6.243-2.144 9.41-.14.74-.784 1.027.442 1.013 2.422-.027 4.844-.018 7.265-.003 1.318.007 1.79.474 1.402 1.524-.757 2.04-.844 4.23-1.436 6.27-1.047 3.608-1.164 7.396-2.486 10.958-.502 1.351-.694 2.948-.856 4.434-.305 2.815-1.446 5.465-1.47 8.333-.011 1.237-1.099 2.069-2.285 2.07-5.765.008-11.531.004-17.296.004-.462 0-1.062.179-1.352-.042-.44-.334-1.758-.571-.597-1.572-.158-2.99 1.625-5.645 1.523-8.641-.02-.583.563-1.168.62-1.774.062-.682.183-1.019.956-1.01 2.768.03 5.536-.017 8.303.028.863.014 1.011-.269 1.222-1.107.552-2.198 1.06-4.392 1.325-6.641.095-.805-.09-1.233-1.085-1.206-2.535.07-5.075-.029-7.61.048-1.114.034-1.175-.65-.971-1.284 1.181-3.673 1.533-7.54 2.718-11.213.213-.663.095-1.277-.994-1.266-5.303.055-10.61.103-15.91-.03-1.338-.033-.838 1.097-1.422 1.468-.078.05.03.607.09.615.455.054.919.03 1.38.03 3.805 0 7.612.036 11.415-.025 1.054-.016 1.528.3 1.303 1.324-.669 3.033-1.392 6.054-2.06 9.086-.194.884-.857.569-1.35.572-3.804.023-7.618.16-11.41-.058-1.554-.09-2.06.96-2.282 1.716a37.61 37.61 0 0 0-.852 3.423c-.59 3.054-.934 6.134-2.05 9.1-.601 1.595-.493 3.445-.773 5.17a14.434 14.434 0 0 1-.719 2.787c-.098.261-.688.477-1.055.48-3.69.035-7.38.022-11.07.022M225.457 4.164c4.61 0 9.233-.194 13.829.069 2.992.171 5.686-.74 8.391-1.534 2.032-.597 3.973-1.543 6.083-1.976.58-.118 1.045-1.216 1.666-.458.35.426.474 1.607.171 1.886-1.346 1.242-.15 2.98-1.142 4.387-.734 1.041-.325 2.691-.756 4.101-.424 1.388-1.08 2.839-.89 4.481.14 1.197-1.059 2.067-2.24 2.068-10.145.006-20.288-.011-30.432.028-.945.003-1.669-.376-2.496-.665-1.292-.45-2.25.206-2.715 1.547-.35 1.009.266 2.27-.818 3.09.121 2.983-.987 5.784-1.508 8.656-.448 2.478-1.292 4.98-1.705 7.462-.463 2.777-1.226 5.486-1.744 8.242-.467 2.487-.602 5.105-1.762 7.474-.617 1.26.267 2.9-.896 4.082-.118 3.706-1.613 7.15-2.11 10.788-.038.273-.537.688-.828.692-3.226.05-6.454.037-9.681.006-.096 0-.313-.407-.265-.563 1.346-4.41 1.53-9.067 3.044-13.467.461-1.339.69-2.96.802-4.461.206-2.719 1.341-5.218 1.623-7.947.19-1.85.805-3.752 1.18-5.642.251-1.27.128-2.767.786-3.766.73-1.108.254-2.219.66-3.174.401-.939.5-1.853.675-2.815.459-2.524 1.139-5.007 1.686-7.516.185-.852.185-1.743.366-2.596.154-.72.536-1.397.661-2.118.532-3.065 1.299-6.072 2.028-9.093.233-.962.365-1.299 1.392-1.29 5.648.046 11.296.022 16.945.022" fill="#FFF"/><path d="M301.022 17.877c-7.032 0-14.064-.007-21.096.004-2.406.003-2.365.04-2.827 2.262-.39 1.88-.962 3.723-1.34 5.606-.121.611-.086 1.06-.904 1.053a630.252 630.252 0 0 0-10.029 0c-.824.006-.784-.452-.896-1.06-.356-1.943.907-3.632.778-5.521.996-.629.484-1.634.65-2.476.165-.831.639-1.639.643-2.459.013-2.755 1.717-5.178 1.47-7.998-.08-.891 1.251-1.75 2.241-1.75 7.608-.005 15.217-.003 22.825-.003.692 0 1.385.032 2.075-.007 1.235-.07 1.764-.582 1.88-1.809a7.579 7.579 0 0 0 0-1.368c-.063-.753.285-.95 1.002-.943 2.996.031 5.995.053 8.99-.01.98-.02 1.164.377 1.104 1.197-.05.682.023 1.372-.019 2.054-.049.795.365.9 1.047.898 6.109-.02 12.225.14 18.325-.1 1.945-.077 3.856-1.17 5.769-1.839 2.009-.703 3.99-1.486 6.01-2.16.364-.12.85.123 1.28.198-.083.39-.157.782-.252 1.17-.334 1.345-.745 2.677-1 4.038-.531 2.846-.82 5.744-1.93 8.459-.494 1.21.383 2.72-.853 3.759.3 2.686-1.317 5.028-1.42 7.65-.01.261-.513.718-.791.721-3.573.05-7.147.002-10.72.05-1.171.016-1.127-.857-.875-1.344 1.204-2.336.814-5.076 1.996-7.409.073-.143-.417-.818-.655-.824-2.42-.064-4.841-.04-7.262-.04h-15.216zM191.695 6.22c3.226 0 6.453.017 9.679-.012.737-.006 1.001.239.978.97-.036 1.098-.427 2.127-.607 3.156-.672 3.828-1.593 7.611-2.298 11.431-.454 2.462-.731 5.039-1.83 7.441-.537 1.177-.467 2.736-.737 4.126-.574 2.952-1.034 5.905-1.995 8.78-.509 1.523-.542 3.196-.865 4.786a185.186 185.186 0 0 1-1.838 8.14c-.392 1.566-.78 3.162-.885 4.762-.17 2.616-1.677 4.957-1.478 7.649.027.36-.688.808-1.112 1.149-.139.112-.446.018-.677.018-6.452 0-12.904-.022-19.356.02-1.143.007-1.107-.722-.926-1.322.865-2.875 1.386-5.824 2.044-8.743.43-1.906.853-2.288 2.785-2.295 1.959-.009 3.918.002 5.876-.003 2.102-.006 2.128 0 2.797-2.097.388-1.215.816-2.445.967-3.7.133-1.087.124-2.123.689-3.158.45-.827-.45-2.029.533-2.866.06-.052-.01-.41-.1-.449-.192-.084-.506-.154-.65-.056-1.706 1.17-3.453 2.294-5.059 3.59-1.102.888-1.137.452-1.766-.561-1.606-2.586-1.807-5.652-3.26-8.268-.502-.906.15-1.837.994-2.277 3.62-1.89 6.63-4.601 9.845-7.036.87-.659 1.685-1.506 2.674-1.863 1.263-.455 1.468-1.444 1.648-2.402.345-1.823.416-3.699.776-5.519.105-.529 1.23-1.045-.298-1.048-2.766-.003-5.531-.031-8.296.018-.883.015-1.286-.227-1.151-1.135.239-1.616.384-3.25.716-4.846.368-1.77 1.015-3.487 1.314-5.264.143-.849.298-1.147 1.192-1.134 3.225.048 6.451.019 9.677.019m43.185 47.07c0 4.682-.033 9.363.025 14.044.013 1.067-.33 1.372-1.358 1.3-1.147-.082-2.31.052-3.457-.03-6.849-.494-13.628.942-20.467.702-1.717-.06-2.506-.783-1.644-2.184.935-1.52.287-3.169 1.173-4.695.763-1.314.305-3.268.856-4.772 1.298-3.541 1.036-7.443 2.716-10.872-.116-3.97 1.505-7.633 2.211-11.455.673-3.641 1.032-7.42 2.547-10.914.377-.868.206-1.97.287-2.964 1.248-.049 2.496-.121 3.744-.14a195.05 195.05 0 0 1 4.842-.003c1.598.017 2.138.497 1.554 2.021-1.657 4.33-1.715 9.017-3.255 13.385-.472 1.337-.583 2.96-.84 4.455-.489 2.856-1.419 5.624-1.883 8.463-.523 3.196-1.407 6.299-2.016 9.465-.03.159-.088.436-.033.464.186.095.418.139.63.135 1.714-.029 3.427-.073 5.14-.112.076-1.682.208-3.363.216-5.045.028-5.48.02-10.961-.002-16.442-.002-.679.117-1.048.913-1.034 1.96.037 3.921-.015 5.88.02 1.714.031 2.2.489 2.21 2.164.03 4.681.01 9.362.01 14.044M65.295 69.301c-1.613 0-3.228.049-4.84-.016-1.211-.048-.291-.501-.182-.924.35-1.354.092-2.755.74-4.157.615-1.328.193-3.15.864-4.426.85-1.616.554-3.357 1.159-5.005.564-1.54.734-3.396.964-5.127.306-2.296.894-4.631 1.524-6.884.432-1.548.501-3.15.998-4.701.442-1.383 1.096-2.835.878-4.484-.148-1.111.231-2.371.65-3.46 1.13-2.942 1.289-6.079 1.992-9.102.2-.864.382-1.106 1.228-1.097 3.227.038 6.454.049 9.68-.002 1.17-.018 1.094.813.884 1.352-1.72 4.416-1.724 9.236-3.362 13.683-.426 1.157-.488 2.573-.616 3.814-.138 1.34-.933 2.472-.842 3.81.09 1.326-.673 2.468-.791 3.816-.213 2.417-1.092 4.773-1.643 7.166a323.485 323.485 0 0 0-1.706 7.859c-.496 2.429-.906 4.875-1.43 7.297-.055.253-.624.551-.963.562-1.727.057-3.457.026-5.186.026m183.547-42.904c.37 4.17-1.139 8.197-.867 12.38.272 4.2.06 8.43.06 12.648s.006 8.435-.008 12.653c-.002.545.093 1.318-.215 1.591-.942.837.11 2.34-.734 2.73-.946.439-2.223.211-3.357.208-1.943-.004-3.885-.058-5.828-.092-.082-2.019-.219-4.037-.233-6.055-.034-5.016.072-10.033-.043-15.046-.065-2.798 1.03-5.432.781-8.27-.256-2.942-.057-5.923-.057-8.887 0-2.85.04-5.7-.023-8.548-.02-.954.36-1.142 1.2-1.103 1.148.054 2.301.004 3.452.016 1.83.018 3.661.051 5.492.077l.38 5.698M42.732 50.789c-4.949 0-9.898.006-14.847-.005-1.305-.002-1.995-.697-1.34-1.484 1.184-1.426.227-3.171 1.212-4.682.758-1.164.587-2.932.792-4.437.231-1.696.981-2.416 2.658-2.417 9.783-.006 19.566-.007 29.348 0 1.871.001 2.56.714 1.882 2.377-1.153 2.826-1.537 5.789-2.02 8.742-.23 1.408-.632 1.89-2.148 1.897-5.179.023-10.358.009-15.537.009m104.433 15.084h-9.652c-1.472 0-.436-.47-.315-1.037.585-2.743.972-5.528 1.447-8.295.18-1.052.827-1.953.763-3.134-.037-.683.728-1.263 1.683-1.26 6.32.024 12.64.004 18.958.048.251.001.737.546.706.786-.135 1.056-.46 2.085-.643 3.136-.44 2.546-1.294 5.007-1.424 7.622-.07 1.403-1.086 2.126-2.56 2.131-2.987.01-5.975.003-8.963.003m4.854-26.055h-8.97c-1.493 0-.422-.486-.306-1.039.576-2.748.952-5.536 1.455-8.3.11-.61.521-1.163.655-1.773.187-.849-.058-2.125.433-2.488.59-.438 1.759-.113 2.677-.113 5.29 0 10.579.021 15.868-.02.925-.007 1.246.3 1.12 1.162-.268 1.826-.26 3.756-.912 5.436-.345.891-.304 1.698-.485 2.533-.178.827-.51 1.624-.668 2.454-.383 2.003-.471 2.124-2.589 2.142-2.759.023-5.519.006-8.278.006m179.447 6.857c.806 0 1.612-.005 2.418 0 2.124.015 2.22.024 2.05 2.243-.132 1.718-.365 3.471-.878 5.108-.552 1.758-.977 3.561-1.096 5.337-.182 2.737-1.371 5.247-1.519 7.977-.024.447-.853 1.197-1.336 1.218-2.759.118-5.526.079-8.287.02-.24-.005-.694-.576-.66-.834.134-1.058.355-2.116.664-3.14 1.143-3.79 1.118-7.837 2.703-11.547.445-1.04-.13-2.332.677-3.504.496-.721-.033-2.36.515-2.762.67-.49 1.985-.116 3.022-.116h1.727zm-42.898 21.941c-1.5 0-3.013.117-4.492-.054-.667-.076-2.204-.306-.771-1.62-.014-4.064 2.06-7.756 2.148-11.811.012-.596.525-1.165.638-1.777.14-.765-.18-1.993.21-2.248.658-.427 1.72-.293 2.613-.307 1.96-.033 3.922.01 5.883-.016 2.064-.027 1.72-.082 1.667 1.946-.027 1.053-.46 2.09-.646 3.145-.168.953.394 2.076-.702 2.8.464 2.04-.672 3.89-.73 5.883-.033 1.168-.373 2.34-.694 3.476-.074.264-.627.54-.972.556-1.382.064-2.767.027-4.152.027" fill="#FFF"/></g></svg>