<svg width="390" height="150" viewBox="0 0 390 150" xmlns="http://www.w3.org/2000/svg"><path d="M118.779 30.612c.29 1.582.825 2.963 1.994 4.086.824.792.865 2.113 1.213 3.156.58 1.734.5 3.687.72 5.545.218 1.85.464 3.697.71 5.652 2.03-.69 4.048-1.356 6.051-2.06 3.395-1.19 6.699-2.647 10.216-3.483.262-.062.47-.45.717-.465.916-.058 1.839-.023 2.9-.023.509.717.904 1.825 1.661 2.203.994.494 1.229 1.305 1.69 2.1-.904 2.176-2.458 3.553-4.688 4.435-1.35.534-2.622 1.273-3.88 2.035l-1.077.653c-.18.109-.359.217-.539.323-.386.229-.592.76-.881 1.152-.465.092-1.175-.304-1.227.615-.952-.1-1.6.258-1.84 1.228l-.51.202.51.413v.614h1.226c-.92 1.283-2.049 2.263-3.365 3.201-1.884 1.343-3.374 3.24-5.224 5.093 0 1.307-.07 2.819.02 4.32.088 1.448-.444 2.99.457 4.358l-.275.412-.299.446.751 1.127-.63 1.26c.4 0 .815.116.926-.02.423-.514.698-1.148 1.114-1.669a627.856 627.856 0 0 1 5.399-6.644c1.159-1.41 2.238-2.905 4.114-3.879 2.096-.079 4.482-.323 6.304 1.244l4.444 6.255c-.827 1.176-.869 2.505-2.458 3.153-.992.406-1.544 1.894-2.31 2.917l-.599-.6-2.847 2.37c-.274-1.473 1.304-1.824 2.016-3.29-.771.333-1.242.408-1.529.68-3.69 3.482-7.158 7.158-9.748 11.572a.707.707 0 0 1-.215.216c-3.728 2.498-2.72 6.347-2.764 9.873-.008.627.464 1.247.56 1.892.103.696.023 1.418.023 1.858l.931 1.817c.256-.076.55-.113.791-.244 1.814-.984 3.473-2.16 4.927-3.653.811-.833 1.962-1.349 2.719-2.218.747-.858 1.05-2.105 2.289-2.53-.075 1.55-1.402 2.381-2.046 3.603-.21.398-.276.872-.376 1.34 1.392-.683 1.984-2.078 2.901-3.21 1.247-1.538 2.678-2.91 3.909-4.495 1.96-2.525 4.283-4.767 6.418-7.16.44-.492.651-1.199 1.113-1.661.463-.463 1.085-.787 1.68-1.087.33-.166.747-.16 1.125-.23-.36.461-.674.969-1.085 1.378-2.461 2.447-4.516 5.234-6.66 7.945-.21.267-.16.742-.199 1.148.378-.233.786-.438 1.195-.642.32 1.147-.828 1.49-1.224 2.245-.454.866-.988 1.69-1.526 2.514l-.46.706c-1.068 1.65-2.066 3.335-2.39 5.365-1.411 1.542-1.795 3.518-2.414 5.426-.607 1.874-1.912 3.58-2.227 5.474-.417 2.497-1.845 4.589-2.265 7.043-.19 1.11-.575 2.205-1.026 3.24-.114.261-.343.472-.594.674l-.306.24c-.102.08-.2.162-.292.247v-2.25l-5.412 6.274c-1.42-.727-2.861-1.152-3.886-2.053-2.211-1.944-4.266-4.079-6.265-6.246-.753-.817-1.094-2.001-1.768-2.911-1.116-1.508-2.35-2.929-3.694-4.584l-3.549.699 3.236-4.559-.354-.266-7.756 7.295c.144-.452.172-1 .453-1.34 1.401-1.686 2.88-3.31 4.3-4.983.153-.18.105-.533.25-1.413-.734.715-1.105 1.073-1.471 1.436-.436.431-.868.868-1.302 1.301l-1.3 1.303-1.3 1.302c-.434.434-.912.833-1.29 1.312-.117.15-.222.312-.322.477l-.293.501a3.737 3.737 0 0 1-.502.69c-.383.396-1.002.552-1.447.903-.479.376-.878.855-1.311 1.289l-1.3 1.302-1.301 1.302-1.3 1.303-1.301 1.302h-.92l-.202-.51-.411.51h-1.227v1.228c-.792.69-1.55 1.422-2.39 2.049-.341.255-.856.279-1.292.409.44-1.276 1.94-1.79 2.069-3.47.082-1.075 1.984-1.559 2.28-2.996.069-.334.56-.57.83-.875 3.028-3.434 6.077-6.85 9.065-10.32 1.994-2.313 3.857-4.738 5.851-7.05 2.545-2.952 4.36-6.428 6.857-9.419.494-.591.545-1.622.632-2.467.104-1.006.024-2.032.024-3.06-2.86 1.509-7.271 4.889-9.03 6.894l-.172.203h1.227c-.18 1.257-.903 2.182-1.668 3.085l-.354.417c-.118.14-.235.279-.349.42-.666.825-1.802 1.306-1.992 2.636l2.313-.541 1.772-1.692.316.155c-.154.388-.223.844-.473 1.153-2.84 3.52-6.593 5.97-10.295 8.41-2.833 1.866-5.8 3.444-8.338 5.81-.865.808-1.916 1.452-2.99 2.079l-.924.537c-.461.27-.918.544-1.359.834a153.023 153.023 0 0 0-8.04 5.708 86.983 86.983 0 0 1-4.508 3.19c-.845.556-1.58 1.235-2.298 1.93l-.714.699c-.953.928-1.926 1.825-3.132 2.443-.204.104-.322.377-.878 1.065l4.338-1.654.29.506-2.34 1.725c-.782.577-1.525 1.22-2.355 1.714-.85.506-1.785.868-2.569 1.748h2.563c-.94 1.24-1.885 1.735-3.077 1.88-.284.035-.53.384-.761.617 2.083.09 3.921-.66 5.69-1.745 1.846-1.133 3.751-2.17 5.93-2.94-.278.296-.552.598-.836.889-.356.366-.688.765-1.086 1.079-2.769 2.18-5.57 4.317-8.32 6.519-1.162.93-2.588 1.221-3.916 1.627-.98.299-2.072.377-3.112.593-.953.2-2.085.376-3.2-.308-.644-.395-1.797.042-3.354.148-1.701-.96-4.04-2.143-6.586-2.996-1.666-.56-3.31-1.838-4.398-3.236-.678-.87-1.634-1.195-2.281-2.01-.647-.815-1.65-1.353-2.52-1.982a83.277 83.277 0 0 0-2.62-1.806c-.637-.426-1.292-.823-1.94-1.232l-.2-.51-.413.51h-.995l-.355-1.046c-.178-.06-.353-.149-.537-.178-.663-.106-1.279-.12-1.977-.401-3.75-1.516-6.19-2.06-11.11-.9-.384.09-.798.049-1.199.067-1.101.051-2.473-.285-3.236.25-.394.275-.83.297-1.264.297h-.325c-.538.004-1.058.063-1.471.63-.15.204-.608.182-1.105.132l-.335-.035A6.269 6.269 0 0 0 0 135.17c.347-.246.665-.56 1.047-.727 2.844-1.242 5.537-2.827 8.554-3.681 2.385-.676 4.765-1.316 7.2-1.827 2.217-.466 4.444-1.068 6.668-1.513 1.7-.34 3.54-.097 5.308.033 1.854.136 3.695.61 5.573-.18-2.126-.236-4.321-.218-6.357-.78-1.872-.518-3.765-.824-5.545-.44-1.36.294-2.675.491-4.043.514.138-1.18 1.123-.43 1.672-.716 4.312-2.248 9.158-2.987 13.655-4.755 2.456-.966 4.89-2.007 7.396-2.864 5.63-1.926 10.95-4.633 16.618-6.506 2.374-.785 4.654-2.069 7.03-2.984 1.646-.634 3.081-1.64 4.372-2.699 1.355-1.11 2.134-2.745 2.823-4.385l.272-.655.135-.325c1.084-2.618 1.865-5.35 3.057-7.938 1.342-2.91 2.478-5.916 3.845-9.223-2.192 1.163-4.192 2.095-6.056 3.246-2.78 1.719-5.453 3.61-8.192 5.396-2.524 1.644-4.712 3.667-6.736 5.879-.1.11-.013.392-.013.901l1.841-1.246c.098.653-.088 1.158-.641 1.577-2.093 1.586-3.18 3.99-4.709 6.025-.759 1.01-1.22 2.425-1.32 3.696-.09 1.17-.682 1.985-1.133 3.009-.727.322-1.49.906-2.282.95-1.018.056-2.334.007-3.034-.58-1.558-1.305-3.28-1.155-4.826-1.153l-.305-.183-.565-.34-1.21-.726c-.1-.29-.211-.469-.213-.648-.014-1.532-.028-3.064 0-4.595.017-.922-1.283-1.664-.31-2.74l.59 1.265c.705-1.055.436-2.037.11-3.012l-.124-.365c-.163-.488-.313-.976-.333-1.473-.072-1.71-.602-3.402-.955-5.097-.331-1.594-.693-3.18-1.28-4.786l-.113 1.26c-.017.21-.032.42-.041.63-.023.492-.01.986-.138 1.496l-.076.254-.094-.334c-.554-2.017-.894-4.076-2.36-5.745h-3.075l-3.225 2.334c-.752-.811.086-1.26.57-1.63 1.224-.93 2.541-1.739 3.798-2.627.347-.246.617-.603.622-1.294-.946.562-1.947 1.05-2.828 1.702-1.887 1.393-3.699 2.889-5.576 4.295-.277.208-.743.163-1.121.234.704-1.072 1.655-1.793 2.714-2.558 1.409-1.017 2.63-2.306 3.823-3.614l.794-.872.397-.433c.55-.596.479-1.582 1.67-1.836.631-.135.977-1.348 1.574-1.955 1.944-1.974 3.577-4.183 5.22-6.407 1.037-1.402 2.318-2.72 4.148-3.217.638-.174 1.254-.553 1.89-.581 1.833-.08 3.672-.044 5.507-.002.165.004.323.383.484.588l-.508.202.508.412.614.615c1.843 1.691 2.527 4.056 3.398 6.251.594 1.496.737 3.21.865 4.842.14 1.8.031 3.618.031 5.666 2.02-1.07 3.742-2.021 5.5-2.905 3.047-1.53 5.92-3.381 9.038-4.785a129.295 129.295 0 0 0 3.838-1.82l2.54-1.253c2.119-1.042 4.246-2.065 6.434-2.955 1.449-.59 2.95-1.026 4.46-1.442l1.512-.413c1.55-.427 3.168-.985 4.626-.485 1.38.472 2.693.48 3.694.517 2.356.934 4.017 2.267 5.519 3.871a10.646 10.646 0 0 1 1.926 2.894c1.134 2.46.8 3.099-1.057 5.163-1.226 1.365-2.326 2.438-4.242 2.3-.066-.006-.13.168-.217.2-1.43.546-3.002.807-4.027 2.15-.113.147-.586.02-.892.02l-.242-1.47-1.599 2.084c-2.17 1.807-4.327 3.615-5.82 6.088-.327.542-1.019.862-1.542 1.284V94.01c-.969.24-1.326.89-1.227 1.843-.39.288-.942.493-1.142.88-.729 1.413-1.34 2.887-2.012 4.373.783.144 1.318-.233 1.82-.657l.299-.256c.496-.423 1.001-.8 1.728-.654 2.621-1.627 5.749-1.816 8.544-3.003 1.462-.62 2.907-1.35 4.451-1.809 1.539-.456 3.052-.997 4.577-1.498 1.705-.56 3.407-1.132 5.119-1.673 1.535-.484 3.083-.933 4.662-1.409 1.436-4.86.507-9.912.816-14.593l-.924-1.802h-3.68l-4.262-1.695-4.658-5.078 2.283.625c.132-.784-.496-.982-.913-1.227-2.46-1.443-4.823-2.985-6.797-5.097-.924-.988-2.08-1.757-3.675-3.076 1.016.31 1.422.406 1.806.555 1.234.477 2.449 1.004 3.696 1.442.328.115.744-.02 1.63-.067-1.064-.69-1.676-1.089-2.29-1.486.168-.09.334-.253.503-.258 1.022-.024 2.046.027 3.066-.029.464-.025.967-.149 1.37-.376 3.967-2.236 8.352-3.571 12.34-5.756.342-.188.631-.472 1.091-.822 0-2.66-.272-5.436.08-8.132.329-2.526 1.319-4.967 2.093-7.716l.462 1.847c.159-.087.415-.161.416-.238.021-2.046.017-4.092.017-6.203l.985-.353zM322.706.017l-.111.093-.219.202c-.145.134-.295.256-.465.303-3.78 1.055-7.127 3.035-10.521 4.912-.124.068-.173.274-.47.777 3.422-1.093 6.037-3.357 9.332-3.83-.216.32-.36.79-.66.934-2.956 1.408-5.085 3.807-7.25 6.124-.971 1.039-1.62 2.38-2.52 3.745 0 1.153-.102 2.479.03 3.781.134 1.327.404 2.558 1.908 3.286 1.368.663 2.42 1.767 4.16 1.87 1.469.086 2.843.945 4.386 1.218 2.79.493 5.37 1.61 6.465 4.146-.163.944-.384 1.586-.36 2.22.048 1.279-.455 2.36-1.34 3.113-1.173.999-1.752 2.877-3.755 2.737-3.58 3.41-8.544 4.074-12.669 6.403-.995.561-2.04 1.066-2.94 1.757-.857.655-2.199.236-2.822 1.461-.162.32-1.058.266-1.654.39l.097.902c3.695-1.033 7.193-2.463 10.981-3.013 1.541-.224 3.094-.88 4.649-1.32 1.579-.444 3.196-.608 4.767-1.036 2.4-.653 4.889-.94 7.263-1.706 1.197-.386 2.606.265 3.664-.766 5.041-.688 9.982-1.797 14.767-3.553 1.09-.4 2.424.31 3.367-.748 2.404.275 4.568-.862 6.818-1.35 1.479-.32 2.903-.405 4.367-.493-.567.643-1.309.868-2.074 1.046l-.513.115c-.598.136-1.19.293-1.707.646-.675.46-1.611.536-2.815.904 2.162.855 3.645-.48 5.268-.573.27-.015.528-.275.794-.282 2.483-.063 4.945.02 7.425-.562 2.06-.485 4.31.466 6.519-.287-.762.484-1.487 1.293-2.293 1.383-1.644.183-2.755 1.607-4.157 1.777-1.573.19-2.398 1.702-3.957 1.678-.211-.004-.433.594-.641 1.151 1.113-.442 2.24-.62 3.355-.86 1.101-.237 2.348-.295 3.239-.878.944-.617 1.687-.008 2.563-.019-1.454.711-2.932 1.38-4.35 2.158-.408.224-.692.677-1.007 1.23l-.12.212c1.048.099 1.885-.64 2.793-.895 4.017-1.13 8.024-2.317 11.967-3.678 2.582-.891 5.048-2.116 7.624-3.216.418.986-.402 1.291-.735 1.364-3.166.697-5.574 2.857-8.35 4.29-2.038 1.051-3.759 2.785-5.855 3.644-1.696.696-3.026 1.856-4.276 2.915-3.187 2.702-6.152 5.715-8.89 8.879-1.098 1.267-2.13 2.624-3.344 3.788-1.588 1.524-3.451 2.326-5.77 2.403-1.938.064-3.78-.357-5.543-.811-1.066-.274-2.09-.377-3.15-.498-2.14-.244-4.277-.53-6.477-1.01.772-.12 1.543-.24 2.685-.415l-.644-.43-.247-.165-.363-.242c-1.205.147-2.346.344-3.496.41-1.222.07-2.462-.08-3.676.044-1.114.115-2.203.468-3.488.194 1.559-.688 3.105-1.405 4.68-2.057 1.57-.65 3.14-1.324 4.76-1.827 1.723-.534 3.504-.88 5.222-1.723-.542-.048-1.13-.259-1.616-.116-1.949.575-4.01.695-5.915 1.28-1.892.582-3.728 1.362-5.674 1.844-1.365.338-2.807.761-3.938 1.547-.6.417-1.233.752-1.87 1.074l-.953.48c-.317.161-.631.328-.94.509-1.236.723-2.515 1.395-3.666 2.24-1.355.994-2.582 2.162-3.885 3.23-.91.747-1.85 1.452-2.931 2.296 1.94.617 2.732-1.238 4.075-1.7 1.322-.455 2.437-1.512 3.702-2.345h5.68l1.951 2.622c.205 1.85-.293 3.427-1.12 5.067-1.315 2.608-2.342 5.365-3.994 7.905 1.075.46 1.113-.482 1.574-.688.311-.14.609-.312.902-.493l.584-.364c3.18-1.95 6.293-4.024 9.558-5.817 2.058-1.13 4.28-2.118 6.548-2.648.554-.13 1.07-.392 1.584-.658l.385-.198c.837-.421 1.69-.764 2.714-.467 1.112-.758 2.277-.708 3.456-.553l.473.066c.63.09 1.263.184 1.892.174l-2.414 1.222-.001.624c.143.062.345.219.422.171 1.925-1.187 3.927-2.01 6.3-1.586-2.09 2.31-4.1 4.53-6.102 6.76-.033.038.047.177.125.444.878-.553 1.607-1.261 2.31-1.992l.7-.734c.818-.855 1.659-1.681 2.72-2.274 2.142-1.197 3.864-3.115 6.42-3.869-1.168 1.169-2.369 2.306-3.495 3.513-2.333 2.502-4.626 5.04-6.947 7.576 0 .287 0 .594.032.93.84-.558 1.87-.81 2.57-1.66.18-.22.71-.148 1.08-.211-.533 1.785-2.157 2.845-2.952 4.467-.406.828-.979 1.574-1.544 2.463.369.2.592.32.814.442-.071.379-.037.828-.232 1.127-1.746 2.666-2.471 5.733-3.438 8.7-.94 2.885-1.88 3.877-4.724 4.94-.702.261-1.313.78-1.948 1.209-2.363 1.592-4.687 3.228-6.561 5.875 2.431.425 4.417 1.271 6.629 1.572 2.62.355 5.155 1.317 7.736 1.98 2.22.57 4.454 1.084 6.68 1.629 1.297.317 2.595.632 3.885.975 2.128.567 4.178 1.36 6.429 1.536 1.69.132 3.42.575 4.988 1.227 1.56.648 3.102.496 4.688.57l2.366 2.578.775 5.818.498-1.432.488.27v-2.898c.823 2.538.517 5.045.156 7.634l-.115.82c-.076.549-.15 1.102-.21 1.66-1.026 1.455-1.71 3.354-2.851 5.04-1.163 1.715-2.61 3.092-4.097 4.376-1.723 1.488-3.784 2.61-5.779 3.748-1.97 1.124-4.04 2.073-6.07 3.092-.503.252-1.018.478-1.987.93.77-2.252 3.547-2.24 3.803-4.603-1.167.795-2.132 1.482-3.126 2.124-1.043.673-2.038 1.601-3.187 1.896-2.679.688-4.886 2.514-7.758 2.809-1.869.192-3.648 1.222-5.627 1.146.263-.204.495-.515.792-.598 2.823-.786 5.458-2.057 8.149-3.178.383-.16.588-.748.952-1.021-1.255.1-2.432.318-4.123.63 1.767-2.058 4.296-2.339 5.242-4.461-1.81.274-3.207 1.537-4.876 2.176-.325.125-.651.246-1.369.516 1.054-1.873 2.504-2.638 4.102-3.552l-1.459-.497c.4-.714.966-1.369 1.133-2.114.197-.872.046-1.822.046-2.796-1.08-1.334-2.158-2.73-3.306-4.066-1.11-1.289-2.292-2.515-3.442-3.77l1.775.454c-.025-.239.07-.762-.116-.897-5.368-3.877-10.823-7.622-16.753-10.61-.081-.04-.202-.004-.424-.004l-.94.678-4.029-2.052-1.838.855c-.52.669-.918 1.7-1.617 1.981-2.423.975-3.542 3.245-4.776 5.107-1.653 2.496-3.393 4.923-5.09 7.304l-4.472 1.476c-1.479-1.31-2.724-2.824-3.7-4.735-1.039-2.031-2.012-4.21-3.796-5.815-.228-.204-.166-.734-.237-1.113l.92.614.92.614c.098-.654-.14-1.115-.634-1.586-1.77-1.694-3.476-3.451-5.203-5.18h-1.167c-1.076-.802-1.723-2.036-3.236-2.669-.056 1.621-1.028 2.81-.851 4.368.08.7-.447 1.45-.542 2.197-.103.804.309 2.02-.095 2.367-.772.664.341 1.327-.32 1.893-.275.236-.2.928-.215 1.414-.093 3.042-.99 5.811-2.35 8.542-.956 1.92-2.809 2.852-3.934 4.557h-3.803c-2.516-1.076-4.17-3.336-5.672-5.63l-.31-.477-.614-.958c-1.326-2.076-2.656-4.136-4.511-5.82-.222-.202-.224-.645.01-1.185.678.678 1.313 1.408 2.051 2.012.299.244.75.3 1.18.385l.182.039c-.028-.173-.028-.378-.028-.583l1.84.47c0-1.38-.148-2.901.042-4.377.2-1.557-.652-2.877-.667-3.997l-2.03-1.901c-1.475 1.21-3.113 2.552-5.219 4.276h1.74c-2.712 3.473-6.358 4.63-10.49 4.288l-3.407-3.413c-.362-1.307-.664-2.618-1.098-3.885-.336-.982-.796-1.908-1.123-2.913-1.025-3.156-2.59-6.05-5.132-8.305-.127-.112-.151-.341-.223-.516.45.145 1.008.169 1.333.456.993.878 1.862 1.897 2.855 2.775.325.287.882.31 1.333.455l-.734-1.558c1.8-.348 2.508 2.361 4.472 1.311l-3.36-3.193c1.492-.419 2.78-.35 3.99-.212 2.686.306 4.953-.693 7.184-1.8l1.216-.608c.203-.101.406-.2.61-.299 1.114-.535 2.159-1.235 3.178-1.943 1.735-1.205 3.83-1.975 4.917-3.984.374-.068.878-.005 1.1-.226.907-.902 1.728-1.89 2.581-2.846l.614-.614c.369-.063.873.007 1.087-.21 1.713-1.743 3.372-3.54 5.048-5.32h-1.227c1.589-1.898 3.237-3.751 4.754-5.706 2.288-2.948 4.978-5.568 6.98-8.755.584-.93 1.576-1.595 2.343-2.417.311-.334.52-.763 1.042-1.551-5.42 2.323-8.388 6.662-11.66 10.443-.497 0-.832-.077-1.103.02-.353.125-.656.39-1.065.648-1.244-.545-2.507-1.458-3.847-1.592-1.565-.158-2.337-1.892-3.958-1.605l-1.048-1.05c-.529-.53-1.07-1.07-1.64-1.643 0-1.948-.395-4.084.094-5.994.693-2.707.378-5.375.509-8.057.048-.977.002-1.901-.551-2.845-.462-.788-.547-1.837-.643-2.786-.103-1.01-.023-2.04-.023-2.82l-.769-1.528 1.235-.348.225 2.276c.583.455.906 1.565 2.442 1.518l-.722-2.343c.468-.06.745-.181.843-.096 2.13 1.853 4.183 1.096 6.37.023 1.69-.828 3.424-1.577 5.337-1.947 1.446-.278 2.767-1.18 4.157-1.773 3.387-1.444 6.826-2.774 10.158-4.336 2.4-1.125 4.662-2.548 6.834-4.237-.399.11-.792.24-1.196.327-.84.18-1.412 1.1-2.398.87.958-1.388 2.469-2.096 3.763-3.07l1.175-.892-.95-.952c-2.197 0-4.444-.093-6.682.02-3.584.182-6.727-1.183-9.809-2.627l-.77-.362-.384-.18c-1.233-.58-2.046-2.056-2.908-2.972 0-1.945.065-3.584-.02-5.215-.076-1.464.31-2.677 1.276-3.791.412-.476.546-1.194.949-2.132 1.534-1.537 3.424-3.272 5.132-5.172 3.4-3.783 7.927-6.008 11.99-8.871 1.475-1.04 3.25-1.428 5.202-1.54l-2.435 1.785.16.345c.795-.206 1.738-.207 2.356-.658 1.86-1.355 4.143-1.375 6.187-2.114 1.443-.522 3.18-.232 4.786-.304zm30.172 144.39-.033.096c.634-.247 1.193-.61 1.965-1.112-1.363-.493-1.663.247-1.932 1.016zm-295.264-.7-.501.428.194.193c.095-.11.19-.222.275-.342l.12-.187a1.025 1.025 0 0 0-.088-.092zm296.745-3.565a3.334 3.334 0 0 0-.395.53c.008.012.047.052.087.092l.502-.428-.194-.194zM208.347 25.81a15.654 15.654 0 0 1 4.137 1.86c.334.211.702.471.884.803 2.34 4.242 4.185 8.707 5.605 13.328.338 1.1.05 2.391.05 4.237l-1.58-2.422c-1.065 3.347-2.116 6.682-3.203 10.006a.716.716 0 0 1-.282.342l-.025.012-.245.964-2.123 8.299c-.584-3.547 1.198-6.775.963-10.298-.493 1.628-1.286 3.233-1.416 4.89-.247 3.14-1.62 6.096-1.333 9.317.072.811-.396 1.663-.564 2.507-.17.847.38 1.85-.583 2.536-.1.072-.037.384-.037.585-.003 1.126.088 2.262-.03 3.375-.098.943-.435 1.86-.68 2.84 1.797.834 3.26-.538 4.869-.534.245 0 .48-.375.739-.406 5.325-.625 11.386-.94 16.291-.337-3.974 1.085-7.545 2.237-10.94 4.45 2.414.406 4.087-1.102 6.574-1.943-.487.677-.649.911-.82 1.139-.856 1.144-2.185 1.77-3.043 2.97-.88 1.233-2.24 2.113-3.18 3.313-1.315 1.682-3.285 1.954-5.055 2.647-.604.237-1.435-.186-1.905.586-2.341-.151-3.888 1.182-5.237 2.868l.395.38c-.734 2.474-.732 15.402.625 22.647l.249-3c.33-.038.608-.068.87-.097.107.214.264.383.265.553.018 1.842-.381 3.802.125 5.493.48 1.605.367 3.13.48 4.279-.188.44-.388.851-.584 1.245l-.288.579c-.421.85-.777 1.63-.876 2.441-.276 2.255-1.795 3.506-3.24 4.802-1.796 1.61-3.365 2.073-5.557 2.103-1.973-1.335-4.093-2.324-5.496-4.555-1.165-1.852-2.877-3.57-5.244-4.199-.364-.097-.69-.341-1.032-.518l.339-.557c.38 0 .759 0 1.166-.032-.027-.07.005-.248-.032-.264-2.517-1.071-4.909-2.458-7.543-3.221-1.028-.297-2.177-.175-3.124-.235l-1.418-1.163c1.983.244 3.483.473 4.99.602 1.378.12 2.674.821 4.588.96l.269.012.084.022c.249.063.445.09.448-.013.326-.115.204-.346.116-.334l-.218.046-.126.039-.143-.144c-1.42-1.368-2.819-1.212-4.055-1.53 2.002.05 3.917-.765 5.885.277 1.046.554 2.276-.144 3.32-.924 0-.502.054-1.116-.01-1.718-.416-3.94.748-7.793.623-11.715 1.048-2.19.451-4.525.657-7.065-4.559 2.228-8.946 4.35-12.792 7.481-1.636 1.331-3.571 2.29-5.24 3.585a59.411 59.411 0 0 0-5.397 4.715c-.99.983-2.534 1.433-2.897 3.063l9.076 1.051c-2.36.61-4.108.19-5.865.427l-.117.116-.538.54-.078.077-.43.43c-.353 0-.845-.009-1.337.002-1.572.036-3.095.017-4.672.549-2.431.82-5.015 1.263-7.516 1.784-4.531.944-8.637-.677-11.609-4.262-1.513-1.825-1.97-4.328-1.46-6.677.2-.924.12-2.189.639-2.752 1.815-1.966 1.889-4.943 4.053-6.636.223-.175.49-.293.736-.438l.496.922c1.928-2.075 3.343-4.41 5.64-5.836.098.654-.151 1.11-.631 1.59-1.127 1.13-1.314 1.607-1.704 3.27.302 0 .743.112.83-.016 1.405-2.08 3.916-2.485 5.82-3.809 1.824-1.27 3.872-2.37 6.133-2.91.713-.17 1.316-.752 2.007-1.062 1.981-.887 3.99-1.716 5.97-2.605.438-.196.806-.547 1.036-.707l-.443-1.738h1.33c-3.043-3.772-6.634-6.5-10.25-9.196-.195-.145-.592-.019-.923.013.232.378.436.787.64 1.197-.378-.072-.863-.018-1.116-.235-1.548-1.326-3.288-2.34-5.106-3.215-1.286-.619-2.547-1.19-2.366-2.957-1.427-1.417-1.295-3.208-1.194-4.992l.533-.534.398-.398.4 1.17h1.542c1.155-1.769 2.38-3.694 4.733-4.604 5.282 1.187 10.716 2.38 16.046 4.053.438-.537-.182-.706-.384-.86-4.175-3.2-8.37-6.375-12.582-9.525-.196-.147-.597-.02-.903-.02.662.615 1.343 1.211 1.981 1.85.59.588 1.135 1.222 1.7 1.837-1.412.308-2.022-1.057-2.988-1.59-2.675-1.474-5.103-3.392-7.678-5.057-.611-.396-1.438-.443-2.125-.742-.475-.206-.882-.57-1.84-1.212h.416c.693 0 1.016-.005 1.359-.032-.56-1.151-2.118-.787-2.782-1.81-.699 0-1.433.108-2.116-.033-.629-.13-1.202-.53-2.25-1.023 1.138-.076 1.864-.102 2.584-.18.694-.075 1.38-.23 2.073-.305 1.582-.172 3.036-.577 4.23-1.745 1.423-1.389 2.801-2.8 4.443-3.992 1.26-.916 2.61-1.65 4.207-2.606 1.18.066 2.812-.188 4.143.33.346.136.72.197 1.102.25l.328.044c.932.127 1.87.305 2.507 1.447.664 1.189 2.195 1.894 3.345 2.821 2.276-1.62-.401-2.995-.364-4.75.27.11.547.131.643.274 2.748 4.078 5.767 7.923 9.032 11.617 1.792 2.028 3.635 4 5.483 5.972.805.858 2.278 3.454 2.655 4.107.756 1.312.59 2.448.027 3.82-.788 1.92-1.03 4.027-1.837 5.985-.594 1.439-1.254 2.582-2.76 3.154-.808 0-1.75.274-2.403-.046-3.287-1.615-6.963-2.22-10.149-4.235 1.217.172 2.434.344 4.134.746l.272.066-.194.07c.37.104.74.21.743.067.326-.115.204-.346.117-.334l-.218.046-.117.035-.127-.132c-1.348-1.313-2.954-.805-3.751-1.791-2.625-.113-5.03-1.112-7.5-1.854-.17-.051-.383.042-.726.089 3.563 2.82 7.018 5.594 10.726 8.062.938.625 1.342 2.053 2.185 3.428l-.498 5.588c2.112-.656 4.398-1.04 6.35-2.061 2.196-1.151 4.833-1.23 6.753-2.923.315-2.575 1.12-5.066.787-7.675.85-1.357.264-2.973.697-4.318.474-1.476.147-3.025.619-4.34.605-1.688.38-3.327.544-4.987.103-1.05.397-2.08.592-3.12.177-.944-.447-2.053.603-2.829.097-.072.01-.391.013-.596.031-1.875.089-3.706.52-5.592.523-2.279.358-4.715.514-7.513l-2.113-1.702 1.072-.508v-.851l-4.901 1.735 3.773-3.748c-2.013.223-3.111 1.561-4.467 2.343-1.91 1.101-3.684 2.438-5.544 3.63-.301.193-.746.16-1.124.233.144-.247.228-.612.443-.724 3.064-1.6 5.335-4.134 7.723-6.53l.782-.793 1.555-1.594c1.296-1.328 2.604-2.642 3.994-3.862.87-.763.818-2.026 2.24-2.568 2.878-1.096 2.915-1.32 5.716-.524zm-19.972 99.498c-.012.007-.052.047-.092.087l.428.503.194-.194a3.499 3.499 0 0 0-.53-.396zm82.21-.614a1.025 1.025 0 0 0-.091.088l.427.502.194-.195c-.167-.142-.334-.285-.53-.395zm-84.176-2.935.042.044.186.205c-.14.003-.276.002-.41-.002l-.122-.007-.012-.003a11.152 11.152 0 0 1-.099-.027l-.1-.029c.143-.048.284-.104.427-.153l.088-.028zm114.852-.751a1.19 1.19 0 0 0-.092.087l.428.502.194-.194c-.168-.142-.335-.285-.53-.395zm-1.431-14.814-1.664 1.632v2.156l-1.655-.65-.243.405 5.58 5.16c.163.163.326.327.519.458l.093.057v-.516h1.228l.613.615 1.227 1.685v-1.685l3.416.758c.841-1.127 1.61-2.141 2.362-3.169.793-1.085 1.569-2.182 2.53-3.52-4.597-2.393-9.386-2.797-14.006-3.386zm2.63 9.308.056-.056-.12.12.428.502.194-.194c-.168-.142-.335-.285-.557-.363zm-49.849-85.35c1.456.514 2.807 1.426 3.75 2.689.117.158.242.313.369.468l.256.31c.77.933 1.523 1.9 1.302 3.303 1.53 1.916-.207 3.651-.329 5.475-.029.424-.337 1.112-.64 1.189-1.736.44-2.255 2.5-4.002 2.888-1.014.226-2.004.56-3.005.846l-.423-.757-2.966 1.97-.276-.276-.235-.236c-3.001 1.492-5.716 3.379-8.158 6.315 1.492.337 2.323 1.757 3.884.422.519-.444 1.662.011 2.483-.628.414-.323 1.043.543 1.953.045 1.12-.614 2.958-.087 3.896-.815 1.261-.98 2.917.271 3.865-1.12.033-.047.196.002.297-.007l7.02-.664 4.065 2.664-.158.459c-.379 0-.758 0-1.164.032.386.634.595 1.474 1.13 1.936 2.442 2.111 3.206 5.194 4.686 7.855.265.478.499 1.24.303 1.666-.969 2.107-.12 4.698-1.784 6.611l-4.233 2.174c-1.208-.022-2.557.08-3.91.985-2.031 1.357-4.297 2.362-6.478 3.49-.413.213-.893.295-1.343.438l.614-1.228c-1.22-.084-1.8.685-2.299 1.563l-.155.28c-1.39-.303-2.093.99-2.941 1.57-.349.239-.707.467-1.068.692l-.725.448c-1.454.896-2.904 1.817-3.987 3.21-.175.223-.721.156-1.095.223l.613-1.229c-1.347-.092-1.915.857-2.454 1.843l-.613.615-.614.614-1.227 1.229-.614.614-1.244.838.656.749a16586.04 16586.04 0 0 0-4.374 3.532l.119.335c.395-.085.818-.105 1.18-.265 2.093-.928 3.939-2.34 5.992-3.3 3.846-1.798 7.82-3.317 11.737-4.962 3.496-1.47 7.06-2.735 10.734-3.69.916-.24 1.904-.4 2.697-.869.896-.529 1.668-.336 2.818-.171-4.938 2.44-9.669 4.664-13.125 8.773v1.287c.267.066.584.256.807.178.799-.282 1.55-.704 2.351-.978.51-.174 1.077-.177 1.741.112-.827.611-1.589 1.352-2.492 1.811-3.22 1.637-6.22 3.66-9.453 5.285-1.165.586-2.246 1.338-3.312 2.12l-1.064.789c-.532.393-1.066.783-1.612 1.153a71.566 71.566 0 0 0-10.737 8.884c-.672.678-1.541 1.16-2.307 1.724l-.806-.73c-.376.238-.773.49-1.076.68-1.442-.403-2.87-.652-4.166-1.208-1.217-.523-2.482-1.19-3.382-2.124-.977-1.014-1.557-2.41-2.545-4.023-.255-3.93 1.116-7.724 4.361-11.61l-.846 4.135c.8-.62 1.167-.8 1.385-1.091.754-1.007 1.388-2.11 2.193-3.07 1.539-1.838 3.17-3.598 4.75-5.403 1.299-1.484 2.61-2.96 3.857-4.487 1.263-1.546 3.227-2.475 3.936-4.502 1.489-.225 1.53-1.998 2.567-2.515 1.229-.614 1.459-1.97 2.525-2.64 3.466-2.184 5.85-5.547 8.943-8.249l-.778-1.592c-1.155.48-2.31.905-3.415 1.436-1.07.515-2.088 1.138-3.003 2.156h1.137c-.998.897-1.88 2.001-3.023 2.64-1.533.86-2.572 2.187-3.839 3.296-.806.705-1.675 1.337-2.42 1.925-2.282.558-3.883-.437-5.362-1.612l-.339-.273-.363-.298c-.18-.149-.36-.297-.541-.442-1.39-1.113-2.47-2.6-4.096-3.45-.592-.31-1.131-1.014-1.7-1.02-1.982-.025-2.584-1.513-3.47-3.176 0-.875.131-2.11-.037-3.301-.178-1.263.18-2.504.718-3.389.398-.653.763-1.331 1.121-2.016l.357-.685.357-.686c1.199-2.281 2.503-4.493 4.845-5.943.266 1.528-1.376 1.85-1.855 2.906l.056 1.204c1.088.465 2.031.16 2.94-.214l.362-.153c.301-.127.6-.251.9-.347 5.231-1.67 10.373-3.57 15.095-6.45.223-.137.601-.017.908-.017l-.614 1.228c.952.099 1.6-.258 1.84-1.228.852.115 1.43-.226 1.823-1.229h-1.209l1.206-3.072c-.229-.559-.36-1.13-.665-1.585-1.22-1.812-4.158-2.64-6.592-1.869-1.587.504-3.297.633-4.864 1.5l.485-1.117c-.627-.083-1.095.103-1.552.6-.885.961-2.034 1.378-3.356 1.243.367-.265.73-.539 1.09-.815l1.08-.833c1.08-.83 2.174-1.638 3.36-2.272 2.599-1.389 4.62-3.378 6.571-5.465 2.994-3.202 6.549-3.63 10.444-2.255zm-1.537 77.832-.011.01-.158.15.089 1.213 1.17-.078c-.371-.575-.652-1.01-1.086-1.293zm-114.317-4.824-.501.428.194.193c.142-.167.284-.334.395-.53a1.025 1.025 0 0 0-.088-.091zm173.726-33.438c-2.524 1.407-4.251 2.998-5.564 5.051-.203.319-.296.715-.526 1.007-2.146 2.727-3.393 5.977-5.167 8.922-.923 1.53-1.636 3.21-2.258 4.892-.591 1.6-1.993 2.877-1.893 4.745-1.618 1.547-.898 4.028-2.583 5.824 2.426-.013 3.618-1.87 5.858-2.458 1.404.027 3.241.03 5.122.526 1.937.51 3.837 1.37 5.913 1.307.51.574 1.135.615 1.772.607l.349-.006c.232-.003.463 0 .69.03.947.129 1.874.545 2.815.563 1.535.03 2.947 1.368 4.416.502l1.214-2.416c-.628-3.311-2.495-5.51-5-6.695l-7.197 5.01c-3.73-1.709-3.73-1.709-6.102-4.364.139-.559.358-1.208.457-1.874.377-2.573 2.122-4.399 3.762-6.085 1.89-1.943 2.832-4.43 4.47-6.483.148-.187.019-.598.019-.905l.613-.465-.613-.764 1.007-3.499-.6-1.844-1.634.429.66-1.557zM104.297 98.925c-1.154.327-1.154.327-2.3 1.69 1.1-.242 1.1-.242 2.3-1.69zm41.663-3.136-.502.428.194.193c.143-.167.285-.334.395-.53-.007-.012-.047-.051-.087-.091zM87.118 92.78c-.869.05-.559.69-.602 1.154l-.011.075c.628-.036.64-.38.615-.743l-.012-.167a1.29 1.29 0 0 1 .01-.319zm-25.822-.064-.502.428.194.194c.142-.167.285-.335.363-.558l-.055-.064zm27.05-1.779c-.912.227-1.282.815-1.24 1.678l.012.165c.97-.24 1.326-.89 1.227-1.843zm146.015.82h-.614v.204h.614v-.205zM67.486 88.48c-1.888.498-3.47 1.488-4.908 3.072 1.888-.498 3.47-1.489 5.06-2.838.559-.363 1.117-.727 1.89-1.228-1.42-.513-1.686.311-2.042.994zm262.918-6.115-8.536 5.913 4.806 2.151c1.639-2.417 3.481-4.638 4.46-7.333l-.486-.487-.244-.244zm-241.082 7.4a3.464 3.464 0 0 0-.395.53.968.968 0 0 0 .088.092l.501-.428-.194-.194zm-18.36-3.742h-.204v.614h.204v-.614zm214.07-3.016c-.095.112-.19.224-.275.344l-.12.187c.007.011.047.052.087.092l.502-.428-.194-.195zm-41.422.394-.046.164c.952.099 1.6-.258 1.84-1.228-.896-.093-1.523.218-1.794 1.064zm2.77-2.236c-.094.111-.189.223-.274.342l-.12.187c.007.012.047.052.087.092l.502-.428-.194-.193zm-84.163-1.844-.194.195c.168.142.335.285.53.395l.02-.017.072-.07-.428-.503zm92.358-1.313c-.433.12-1.143-.276-1.195.643.465-.093 1.175.304 1.195-.643zm.395-.53a3.464 3.464 0 0 0-.395.53c.007.012.048.052.088.092l.5-.428-.193-.193zm96.516-.12-.502.428.194.194c.143-.168.285-.335.395-.53a1.025 1.025 0 0 0-.087-.093zM82.159 28.954c.092 1.639.03 3.5-.669 4.91-.734 1.482-.388 3.025-.997 4.51-.575 1.401-.054 3.228-.143 4.861-.084 1.563.43 3.183-.553 4.688-.269.412-.04 1.15-.04 1.99 1.921-.572 3.337-1.576 4.6-2.662 1.652-1.42 3.827-1.735 5.547-2.968.203-.146.522-.13.855-.093l.333.038c.11.011.219.02.321.02l-.713 1.227.702-.121c3.034-.53 5.97-1.08 8.841.276 1.838 1.15 2.727 3.056 3.72 5.585-.989-.672-1.555-1.055-2.148-1.406-.066.614.101 1.13.66 1.538.77.561.865 1.28.337 2.088-.513-1.076-1.353-1.721-2.517-1.804-2.486-.176-4.816.268-6.814 1.898-.288.234-.654.371-.988.547-3.159 1.678-6.014 3.783-8.733 6.101-1.102.94-2.542 1.499-3.264 2.852l-.126.263h1.227c-.795.899-1.496 1.91-2.404 2.674-1.725 1.454-2.938 3.272-4.083 5.139l-.525.864c-.262.432-.524.865-.791 1.294-.553.887-1.057 1.804-1.708 2.92l-4.053.715-4.322-1.602c-2.579-1.169-2.835-3.806-3.288-6.43.459-.415.401-1.023.312-1.654l-.053-.38c-.066-.505-.09-1.004.178-1.406.854-1.29.28-2.554.487-3.806.222-1.345.407-2.696.62-4.044.196-1.247.394-2.494.615-3.738.22-1.245-.6-2.656.444-3.611-.165-.629-.598-1.463-.397-1.665.817-.823.132-1.674.258-2.483.135-.874.3-1.762.27-2.639-.02-.533-.384-1.054-.672-1.779l-.775.08-1.538.157-3.199.328 5.688-4.294-.187-.457c-.544.072-1.187-.018-1.612.245-1.461.907-3.037 1.595-4.512 2.494-2.37 1.445-5.068 2.355-7.857 3.114.863-.668 1.651-1.476 2.601-1.976 2.474-1.303 4.938-2.593 7.045-4.47.81-.723 1.82-1.27 2.473-2.105.23-.293.512-.502.806-.698l.355-.235c.416-.276.822-.584 1.106-1.119.69-1.296 2.294-2.08 3.106-3.342 1.097-1.703 2.465-3.002 4.64-4.156 1.365.116 3.183-.127 4.874-.985 2.527-1.282 6.474 1.384 6.66 4.712zM79.7 63.843l-.502.428.194.194c.142-.167.285-.335.395-.53-.007-.012-.048-.052-.087-.092zm52.193-4.29-1.2.235.054.397c.342-.03.684-.059 1.02-.248l.142-.091-.001-.02c-.004-.052-.01-.162-.015-.273zm30.323-1.732-.194.194c.112.095.223.19.343.275l.187.12.02-.017.072-.07-.428-.502zm101.843-3.686-.194.193c.167.143.334.286.53.397.012-.008.051-.048.091-.088l-.427-.502zm-110.041-.089a1.025 1.025 0 0 0-.092.088l.427.502.194-.194a3.402 3.402 0 0 0-.53-.396zm87.812-4.912c-1.353.118-2.352.635-3.018 1.726 1.21-.149 2.297-.514 3.018-1.726zm-140.351.086-.194.194c.111.095.223.19.342.276l.187.12c.012-.008.052-.048.092-.088l-.427-.502zm140.348-.216.003.13c.357-.063 1.067.334 1.12-.585a1.504 1.504 0 0 1-.4.004l-.164-.012c-.294-.016-.546.023-.559.463zm125.654-7.881-1.2.235.054.397c.342-.03.684-.059 1.02-.248l.142-.091-.001-.02c-.004-.052-.01-.162-.015-.273zm-129.448-3.256c-1.253.455-2.504.688-3.06 2.082 1.261-.218 2.512-.45 3.06-2.082zM363.8 39.28l-1.2.235c.019.132.036.264.054.397.342-.03.684-.059 1.02-.248l.142-.091-.001-.02c-.004-.052-.01-.162-.015-.273zM134.568 16.625c.848.077 1.68.342 2.581.537l.59-.55c1.315 1.55 3.191.158 4.818.958 1.496.735 3.207 1.223 4.604 2.155 1.392.929 2.67 2.136 3.719 3.446 1 1.248 1.637 2.787 2.497 4.31 0 .983.035 2.107-.007 3.229-.075 1.958-.963 2.98-3.058 3.72-.62.22-1.188.582-1.79.855-2.238 1.014-4.48 2.017-6.72 3.024l-.18-.29 1.254-1.46-.966-1.067-7.223 3.269.39-4.525-1.236-.791-.219 1.526h-1.067c.149-3.75-.94-7.156-3.146-10.034-2.233-2.915-5.396-4.358-9.147-4.586h6.59l.033-.453-2.928-.477 7.652-2.547-.077-.27c1.012 0 2.031-.07 3.036.021zm104.63 20.903c-.341.03-.683.059-1.02.247l-.143.09.003.02c.004.053.01.163.015.274l1.199-.235-.054-.396z" fill="#FFF" fill-rule="evenodd"/></svg>