<svg width="267" height="108" viewBox="0 0 267 108" xmlns="http://www.w3.org/2000/svg" xmlns:xlink="http://www.w3.org/1999/xlink"><defs><path id="a" d="M0 0h103v68H0z"/></defs><g fill="none" fill-rule="evenodd"><path d="m249 14-22.007 1.43L221 41l22.873-1.507L249 14zm-94.671 6.055c2.278-2.91 2.278-2.91 12.19-4.458l4.104-12.275 7.332-1-3.257 13.074 18.825-.991 4.232-11.512L205.51 2c-1.48 4.194-2.726 7.726-4.223 11.975C223.83 12.024 245.793 11.85 267 9.263c-1.345 3.046-1.345 3.046-9.194 4.302l-5.33 24.932 6.423-.424c.128.374.255.75.384 1.123-2.424 1.036-4.849 2.07-7.805 3.334-3.88 12.174-7.678 25.174-18.98 33.842-3.023 2.318-6.64 3.869-10.345 5.254 13.694-9.467 16.92-24.267 21.386-39.456l-23.071 1.53c-5.113 20.13-15.11 35.953-36.936 41.3 17.525-7.762 23.825-23.247 28.784-40.453h-8.996c2.18-4.505 6.545-1.887 10.044-3.948l5.925-24.92-19.26 1.157c-.766 5.52-4.77 7.926-9.217 10.172-1.707.862-3.34 2.821-3.988 4.64-2.656 7.461-4.98 15.043-7.289 22.621-.668 2.193-1.115 4.51-1.255 6.794-.328 5.371 1.98 8.114 7.341 8.534 3.608.281 7.258.053 10.889.053.02.328.043.655.063.983-5.777.315-11.566 1.012-17.328.842-6.052-.178-9.032-3.658-8.574-9.78.292-3.9 1.353-7.783 2.42-11.575 1.298-4.602 3.101-9.062 4.424-13.658.894-3.105 2.654-5.057 5.575-6.47 5.862-2.836 7.454-5.18 9.08-12.14-3.098 0-6.165-.065-9.229.018-2.975.081-5.948.315-9.506.513-5.013 15.225-12.793 28.395-29.435 33.874 11.56-8.085 16.636-20.131 21.324-33.46-4.135.472-7.514.859-10.995 1.258zM59 11h-6.259L50 26c2.4-.146 4.128-.253 6.147-.375L59 11M38 43.988c-7.042-1.944-14.59-.986-20.795 2.575-4.388 2.519-7.974 5.84-9.633 10.78-1.747 5.204.586 9.266 5.925 10.302 5.542 1.077 10.537-.285 14.538-4.25 5.412-5.362 7.993-12.217 9.965-19.407m17.108-15.75-5.95.286-3.929 14.677 4.133 2.788-.223.587-4.306-1.127c-2.133 3.865-3.874 7.832-6.323 11.305-6.524 9.253-15.6 13.68-27.03 12.819-4.478-.337-8.752-1.69-10.632-6.21-1.993-4.793-.254-9.197 2.948-12.87 5.262-6.032 12.154-9.231 20.09-9.848 4.766-.37 9.585-.067 15.2-.067l2.77-11.894c-4.686.474-8.584.87-12.354 1.25 1.09-2.213 1.09-2.213 12.9-4.548.749-4.283 1.528-8.76 2.42-13.868l-9.33.45-.495-.8c1.51-.772 2.972-2.088 4.54-2.228 8.937-.801 17.9-1.322 26.905-1.94.243.625.626 1.102.548 1.488-2.79 13.784-5.084 27.696-8.568 41.307-6 23.438-21.774 36.803-45.517 41.164-.622.114-1.284.014-2.101-.615 1.143-.41 2.264-.9 3.433-1.218 14.93-4.043 25.557-13.068 31.864-27.111 4.775-10.633 7.204-21.857 9.007-33.776" fill="#FFF"/><g transform="translate(64 40)"><mask id="b" fill="#fff"><use xlink:href="#a"/></mask><path d="M102.866 0c-9.604 42.913-35.921 68.132-75.87 68-5.554-.02-11.293-1.23-16.609-2.942C-.477 61.56-3.17 51.374 3.977 42.424c4.216-5.279 9.843-8.445 16.234-10.19 14.502-3.96 28.679-2.755 42.46 3.169 1.77.76 3.385 1.883 5.838 3.273-6.863-1.544-12.701-3.398-18.672-4.083-10.964-1.256-21.703.093-31.181 6.268-2.956 1.926-5.682 4.759-7.494 7.789-4.034 6.744-1.919 12.356 5.338 15.262 7.478 2.994 15.294 3.205 23.09 1.745 19.322-3.623 32.298-15.764 41.52-32.339 4.196-7.54 7.402-15.636 11.413-24.243L103 .111 102.866 0z" fill="#FFF" mask="url(#b)"/></g><path d="M99.504 64.243c2.384-2.657 5.709-4.945 6.964-8.047 2.968-7.338 4.952-15.064 7.536-23.272h-10.31c-1.192 5.431-2.384 10.739-3.518 16.058-1.138 5.339-2.219 10.69-3.32 16.016-5.573.067-7.552-1.509-6.645-5.868 3.616-17.389 7.417-34.74 11.233-52.496l7.942-1.024c-1.715 8.35-3.297 16.046-4.994 24.3l9.554-.48c1.24-6.91 2.45-13.638 3.745-20.848l-7.06-.774c4.134-2.588 8.43-3.541 13.697-2.207.224 1.778.923 3.589.578 5.18-2.636 12.16-5.168 24.359-8.37 36.38-1.821 6.838-5.484 12.931-12.342 16.257-1.347.654-3.088.514-4.648.74l-.042.085z" fill="#FFF"/><path d="m160 7.473-8.729 3.154c-1.057 4.596-2.309 10.027-3.553 15.459-1.44 6.293-2.529 12.692-4.372 18.863-5.53 18.504-16.342 23.08-34.456 23.051-.179 0-.358-.41-.89-1.059 2.248-.39 4.241-.79 6.25-1.075 9.172-1.3 15.687-6.323 18.72-14.961 2.784-7.928 4.685-16.178 6.798-24.333 1.324-5.112 2.32-10.309 3.643-16.284L126.404 11.3l-.258-1.227c5.135-3.648 11.676-1.325 17.689-3.047l2.025-5.957L153.112 0l-.68 6.65c2.511-.179 4.855-.344 7.2-.51.121.444.245.889.368 1.333M52 85C65.68 61.253 67.284 34.376 72.924 8.483c1.138-.171 2.107-.39 3.086-.445 1.314-.073 2.635-.018 4.99-.018C74.48 35.196 71.925 63.187 52 85" fill="#FFF"/><path d="M67 66c7.65-3.097 9.93-9.887 11.544-16.97 2.364-10.371 4.487-20.797 6.668-31.21.294-1.406.328-2.867.513-4.59l-5.517-1.084c3.603-3.812 8.571-4.202 12.686-.938 0 1.27.265 2.803-.042 4.208-2.59 11.852-5.096 23.729-8.009 35.5C82.606 59.956 76.143 64.593 67 66m51-10c7.157-11.438 7.56-24.861 11.311-37.58 2.466-.136 4.673-.255 7.689-.42-3.901 14.437-4.405 29.57-19 38m66 2.993c1.801-3.762 3.7-7.319 5.225-11.028 1.428-3.474 2.375-7.141 3.683-10.668 2.857-7.702 6.098-9.723 16.092-9.226-8.262 3.78-8.655 11.045-10.958 17.32-1.118 3.05-2.27 6.173-3.99 8.9-2.368 3.746-5.39 4.81-10.052 4.702m-17.433-18.404-.031-.178-.103.068zM99.442 64.343l.158.314-.2-.229z" fill="#FFF"/></g></svg>