<?xml version="1.0" standalone="no"?><!DOCTYPE svg PUBLIC "-//W3C//DTD SVG 1.1//EN" "http://www.w3.org/Graphics/SVG/1.1/DTD/svg11.dtd"><svg class="icon" width="200px" height="200.00px" viewBox="0 0 1024 1024" version="1.1" xmlns="http://www.w3.org/2000/svg"><path fill="#111111" d="M513.74 959.03c-60.34 0-118.88-11.82-174.01-35.14-53.24-22.52-101.04-54.75-142.09-95.79-41.05-41.05-73.28-88.85-95.79-142.09C78.53 630.88 66.7 572.34 66.7 512s11.82-118.88 35.14-174.01c22.52-53.24 54.75-101.04 95.79-142.09 41.05-41.05 88.85-73.28 142.09-95.79 55.13-23.32 113.68-35.14 174.01-35.14 60.34 0 118.88 11.82 174.01 35.14 53.24 22.52 101.04 54.75 142.09 95.79s73.28 88.85 95.79 142.09c23.32 55.13 35.14 113.68 35.14 174.01s-11.82 118.88-35.14 174.01c-22.52 53.24-54.75 101.04-95.79 142.09s-88.85 73.28-142.09 95.79c-55.12 23.32-113.66 35.14-174 35.14z m0-844.06c-218.93 0-397.04 178.1-397.04 397.03s178.11 397.03 397.03 397.03c218.93 0 397.04-178.11 397.04-397.03S732.66 114.97 513.74 114.97z"  /><path fill="#111111" d="M664.58 339.48l-273 191.16c-11.31 7.92-26.9 5.17-34.82-6.14-7.92-11.31-5.17-26.9 6.14-34.82l273-191.16c11.31-7.92 26.9-5.17 34.82 6.14 7.92 11.32 5.17 26.9-6.14 34.82z"  /><path fill="#111111" d="M670.72 719.33c-7.92 11.31-23.51 14.06-34.82 6.14l-273-191.16c-11.31-7.92-14.06-23.51-6.14-34.82 7.92-11.31 23.51-14.06 34.82-6.14l273 191.16c11.31 7.93 14.06 23.51 6.14 34.82z"  /></svg>