<?xml version="1.0" standalone="no"?><!DOCTYPE svg PUBLIC "-//W3C//DTD SVG 1.1//EN" "http://www.w3.org/Graphics/SVG/1.1/DTD/svg11.dtd"><svg class="icon" width="200px" height="200.00px" viewBox="0 0 1024 1024" version="1.1" xmlns="http://www.w3.org/2000/svg"><path fill="#111111" d="M511 958.83c-60.34 0-118.88-11.82-174.01-35.14-53.24-22.52-101.04-54.75-142.09-95.79s-73.28-88.85-95.79-142.09C75.79 630.68 63.97 572.14 63.97 511.8s11.82-118.88 35.14-174.01c22.52-53.24 54.75-101.04 95.79-142.09s88.85-73.28 142.09-95.79C392.12 76.59 450.66 64.76 511 64.76S629.88 76.59 685.01 99.9c53.24 22.52 101.04 54.75 142.09 95.79s73.28 88.85 95.79 142.09c23.32 55.13 35.14 113.68 35.14 174.01s-11.82 118.88-35.14 174.01c-22.52 53.24-54.75 101.04-95.79 142.09s-88.85 73.28-142.09 95.79c-55.13 23.33-113.67 35.15-174.01 35.15z m0-844.07c-218.93 0-397.03 178.11-397.03 397.03S292.07 908.83 511 908.83 908.03 730.72 908.03 511.8 729.93 114.76 511 114.76z"  /><path fill="#111111" d="M360.16 339.28l273 191.16c11.31 7.92 26.9 5.17 34.82-6.14 7.92-11.31 5.17-26.9-6.14-34.82l-273-191.16c-11.31-7.92-26.9-5.17-34.82 6.14-7.92 11.31-5.17 26.9 6.14 34.82z"  /><path fill="#111111" d="M354.02 719.13c7.92 11.31 23.51 14.06 34.82 6.14l273-191.16c11.31-7.92 14.06-23.51 6.14-34.82-7.92-11.31-23.51-14.06-34.82-6.14l-273 191.16c-11.31 7.92-14.06 23.51-6.14 34.82z"  /></svg>