<?xml version="1.0" encoding="UTF-8"?>
<svg width="28px" height="28px" viewBox="0 0 28 28" version="1.1" xmlns="http://www.w3.org/2000/svg" xmlns:xlink="http://www.w3.org/1999/xlink">
    <title>编组 16备份 2</title>
    <g id="pc端" stroke="none" stroke-width="1" fill="none" fill-rule="evenodd">
        <g id="中国_新闻详情" transform="translate(-594, -530)">
            <g id="编组-16备份-2" transform="translate(594, 530)">
                <rect id="矩形" fill-opacity="0.37" fill="#FF0000" opacity="0" x="0" y="0" width="28" height="28"></rect>
                <path d="M7.5638852,7 L20.4361148,7 C21.3276335,7 21.6509198,7.09282561 21.9768457,7.2671327 C22.3027716,7.4414398 22.5585602,7.69722837 22.7328673,8.0231543 C22.9071744,8.34908022 23,8.67236646 23,9.5638852 L23,18.4361148 C23,19.3276335 22.9071744,19.6509198 22.7328673,19.9768457 C22.5585602,20.3027716 22.3027716,20.5585602 21.9768457,20.7328673 C21.6509198,20.9071744 21.3276335,21 20.4361148,21 L7.5638852,21 C6.67236646,21 6.34908022,20.9071744 6.0231543,20.7328673 C5.69722837,20.5585602 5.4414398,20.3027716 5.2671327,19.9768457 C5.09282561,19.6509198 5,19.3276335 5,18.4361148 L5,9.5638852 C5,8.67236646 5.09282561,8.34908022 5.2671327,8.0231543 C5.4414398,7.69722837 5.69722837,7.4414398 6.0231543,7.2671327 C6.34908022,7.09282561 6.67236646,7 7.5638852,7 Z" id="矩形" fill-opacity="0.769695149" fill="#111111"></path>
                <path d="M20,11 L15.6641006,13.8905996 C14.6564024,14.5623984 13.3435976,14.5623984 12.3358994,13.8905996 L8,11 L8,11" id="路径" stroke="#FFFFFF" stroke-width="1.5" stroke-linecap="round"></path>
            </g>
        </g>
    </g>
</svg>