<?xml version="1.0" standalone="no"?><!DOCTYPE svg PUBLIC "-//W3C//DTD SVG 1.1//EN" "http://www.w3.org/Graphics/SVG/1.1/DTD/svg11.dtd"><svg t="1697578356557" class="icon" viewBox="0 0 1024 1024" version="1.1" xmlns="http://www.w3.org/2000/svg" p-id="180338" xmlns:xlink="http://www.w3.org/1999/xlink" width="48" height="48"><path d="M640.5 426.5c0-57.2-22.3-110.9-62.7-151.4s-94.2-62.7-151.4-62.7c-16.6 0-30 13.4-30 30s13.4 30 30 30c84.9 0 154.1 69.1 154.1 154.1 0 16.6 13.4 30 30 30s30-13.5 30-30z" fill="#7B7B7C" p-id="180339"></path><path d="M915.5 873L677.7 635.3c20.5-24.6 37.2-52 49.8-81.7 17-40.3 25.7-83.1 25.7-127.2s-8.6-86.9-25.7-127.2c-16.5-38.9-40-73.8-70-103.8s-64.9-53.5-103.8-70c-40.3-17-83.1-25.7-127.2-25.7s-86.9 8.6-127.2 25.7c-38.9 16.5-73.8 40-103.8 70s-53.5 64.9-70 103.8c-17 40.3-25.7 83.1-25.7 127.2s8.6 86.9 25.7 127.2c16.5 38.9 40 73.8 70 103.8s64.9 53.5 103.8 70c40.3 17 83.1 25.7 127.2 25.7s86.9-8.6 127.2-25.7c29.7-12.6 57-29.2 81.7-49.8L873 915.5c5.9 5.9 13.5 8.8 21.2 8.8s15.4-2.9 21.2-8.8c11.8-11.8 11.8-30.7 0.1-42.5z m-489-179.8c-71.2 0-138.2-27.7-188.6-78.1-50.4-50.4-78.1-117.4-78.1-188.6s27.7-138.2 78.1-188.6c50.4-50.4 117.4-78.1 188.6-78.1s138.2 27.7 188.6 78.1c50.4 50.4 78.1 117.4 78.1 188.6s-27.7 138.2-78.1 188.6-117.4 78.1-188.6 78.1z" fill="#7B7B7C" p-id="180340"></path></svg>