<?xml version="1.0" encoding="UTF-8"?>
<svg width="28px" height="28px" viewBox="0 0 28 28" version="1.1" xmlns="http://www.w3.org/2000/svg" xmlns:xlink="http://www.w3.org/1999/xlink">
    <title>编组 16备份 5</title>
    <g id="pc端" stroke="none" stroke-width="1" fill="none" fill-rule="evenodd">
        <g id="中国_新闻详情" transform="translate(-720, -530)">
            <g id="编组-3" transform="translate(594, 530)">
                <g id="编组-16备份-5" transform="translate(126, 0)">
                    <rect id="矩形" fill-opacity="0.37" fill="#FF0000" opacity="0" x="0" y="0" width="28" height="28"></rect>
                    <g id="编组-2" transform="translate(14, 14.4995) rotate(-45) translate(-14, -14.4995)translate(4.25, 9.999)" fill="#111111" fill-opacity="0.769695149" fill-rule="nonzero">
                        <path d="M7.33838324,1.81105984e-13 C6.60837155,0.513720265 6.00896558,1.20053926 5.59983167,2.00079065 L4.5,2.00102945 C3.11928813,2.00102945 2,3.12031758 2,4.50102945 C2,5.88174132 3.11928813,7.00102945 4.5,7.00102945 L9,7.00102945 C10.3807119,7.00102945 11.5,5.88174132 11.5,4.50102945 C11.5,3.93824673 11.314041,3.41889706 11.0002169,3.00107452 L13.2439108,3.0009429 C13.4097576,3.47013575 13.5,3.97504397 13.5,4.50102945 C13.5,6.98631082 11.4852814,9.00102945 9,9.00102945 L4.5,9.00102945 C2.01471863,9.00102945 -3.13526982e-13,6.98631082 -3.13526982e-13,4.50102945 C-3.13526982e-13,2.01574808 2.01471863,0.00102945025 4.5,0.00102945025 Z" id="形状结合"></path>
                        <path d="M13.3383832,3.8689176e-12 C12.6083716,0.513720265 12.0089656,1.20053926 11.5998317,2.00079065 L10.5,2.00102945 C9.11928813,2.00102945 8,3.12031758 8,4.50102945 C8,5.88174132 9.11928813,7.00102945 10.5,7.00102945 L15,7.00102945 C16.3807119,7.00102945 17.5,5.88174132 17.5,4.50102945 C17.5,3.93824673 17.314041,3.41889706 17.0002169,3.00107452 L19.2439108,3.0009429 C19.4097576,3.47013575 19.5,3.97504397 19.5,4.50102945 C19.5,6.98631082 17.4852814,9.00102945 15,9.00102945 L10.5,9.00102945 C8.01471863,9.00102945 6,6.98631082 6,4.50102945 C6,2.01574808 8.01471863,0.00102945026 10.5,0.00102945026 Z" id="形状结合备份" transform="translate(12.75, 4.5005) scale(-1, -1) translate(-12.75, -4.5005)"></path>
                    </g>
                </g>
            </g>
        </g>
    </g>
</svg>