<?xml version="1.0" encoding="UTF-8"?>
<svg width="172px" height="172px" viewBox="0 0 172 172" version="1.1" xmlns="http://www.w3.org/2000/svg" xmlns:xlink="http://www.w3.org/1999/xlink">
    <title>编组 7</title>
    <defs>
        <polygon id="path-1" points="0 0 33.8757721 0 33.8757721 63.878749 0 63.878749"></polygon>
        <polygon id="path-3" points="0 0 49.1145266 0 49.1145266 46.3514911 0 46.3514911"></polygon>
        <polygon id="path-5" points="0 0 41.2773722 0 41.2773722 33.558507 0 33.558507"></polygon>
    </defs>
    <g id="pc端" stroke="none" stroke-width="1" fill="none" fill-rule="evenodd">
        <g id="中国_加入我们" transform="translate(-874, -3912)">
            <g id="编组-7" transform="translate(874, 3912)">
                <rect id="矩形" x="0" y="0" width="172" height="172"></rect>
                <g id="编组" transform="translate(14, 27)">
                    <g transform="translate(37.9056, 0)">
                        <mask id="mask-2" fill="white">
                            <use xlink:href="#path-1"></use>
                        </mask>
                        <g id="Clip-2"></g>
                        <path d="M0,12.974248 C2.42726582,5.09474689 5.67546835,-0.787086208 9.576,0.0859131389 C21.2393165,2.67990339 40.4090886,32.9879854 31.6556203,63.878749 C36.0626582,46.5694909 17.9209367,25.6848002 0,12.974248" id="Fill-1" fill="#FF9300" mask="url(#mask-2)"></path>
                    </g>
                    <path d="M68.8937013,66.0944623 C61.5337519,88.622165 45.6773468,116.602931 33.4049924,112.610778 C27.1088658,110.563094 24.1978785,103.573188 23.3717013,95.6873214 C23.8296759,95.8471439 24.2876506,96.0081032 24.7592962,96.1604234 C45.3674734,102.864558 63.1753975,83.1120386 69.0443089,65.59999 C69.0003342,65.7668602 68.9470177,65.9305476 68.8937013,66.0944623" id="Fill-3" fill="#FF9300"></path>
                    <path d="M69.0438987,65.6001264 C63.1749873,83.112175 45.3682025,102.864695 24.7588861,96.1607871 C24.2872405,96.0071029 23.8292658,95.8472803 23.3712911,95.6874578 C22.5742785,88.1962595 23.6756962,79.8964001 25.5176203,74.2589613 C28.2479241,65.9004473 34.5786835,61.9726322 49.1149367,53.9003438 C49.1149367,53.9003438 39.7854684,52.6313119 35.395519,49.3359667 C34.4112152,48.5975547 33.6761772,47.7588843 33.3487595,46.8144991 C32.2436962,43.6028163 34.0033671,25.6822313 37.905038,12.9748619 C55.8262025,25.68405 73.9676962,46.5701047 69.5608861,63.8782261 C69.4977722,64.1405806 69.4282785,64.3892945 69.3442025,64.6455107 C69.2510127,64.9658378 69.1580506,65.2859376 69.0438987,65.6001264" id="Fill-5" fill="#FF4200"></path>
                    <path d="M35.3951089,49.3361031 C35.3951089,49.3361031 11.3092861,43.9694306 7.0344,38.9687812 C2.75427342,33.9774529 0.17275443,-2.55802449 17.1392354,2.134347 C22.902881,3.72620674 30.3840456,7.63060539 37.9057671,12.9738615 C34.0027291,25.682595 32.2430582,43.6029527 33.3492608,46.8146355 C33.6757671,47.7581113 34.4108051,48.5976912 35.3951089,49.3361031" id="Fill-7" fill="#FFC400"></path>
                    <g transform="translate(0, 49.3361)">
                        <mask id="mask-4" fill="white">
                            <use xlink:href="#path-3"></use>
                        </mask>
                        <g id="Clip-10"></g>
                        <path d="M49.1145266,4.56437706 C34.5782734,12.6366655 28.2475139,16.5642532 25.5172101,24.9229946 C23.6752861,30.5604334 22.5750076,38.8602928 23.370881,46.3514911 C3.73128608,39.2158582 -2.19891646,20.8087579 0.689286076,11.9691848 C2.82467848,5.43169281 14.2715392,3.13438594 35.3951089,0 C39.7859696,3.29534519 49.1145266,4.56437706 49.1145266,4.56437706" id="Fill-9" fill="#FF9300" mask="url(#mask-4)"></path>
                    </g>
                    <path d="M119.324187,47.5628914 C121.623403,40.9101362 122.348187,35.224728 119.218466,33.8681688 C109.86758,29.8028109 81.3669722,41.0813259 71.8294785,66.7772887 C77.5170228,52.6290157 100.557934,47.3332744 119.324187,47.5628914" id="Fill-11" fill="#FFC400"></path>
                    <path d="M71.1725013,68.6408695 C64.8900456,87.8698169 61.7174886,115.124902 72.1944,118.532328 C77.5675139,120.280372 83.099438,116.921144 87.645919,111.897987 C87.2483241,111.778859 86.8516405,111.659049 86.4494886,111.528781 C68.8577924,105.806543 66.5360203,83.2470125 71.3183241,68.2248308 C71.2640962,68.3614643 71.2182987,68.5012806 71.1725013,68.6408695" id="Fill-13" fill="#FFC400"></path>
                    <path d="M71.3182329,68.224558 C66.5359291,83.2467397 68.8577013,105.80627 86.4493975,111.528508 C86.8526886,111.658776 87.2491443,111.778814 87.6458278,111.897714 C91.9717519,107.131684 95.3972203,100.855864 96.9689165,96.0436825 C99.3004861,88.9087316 96.9142329,83.023261 90.9601063,70.1594792 C90.9601063,70.1594792 98.0329671,73.9677115 102.722309,73.898599 C103.7736,73.883367 104.703676,73.6728469 105.404309,73.1865589 C107.786461,71.5269508 115.608258,58.2855513 119.324233,47.5631187 C100.55798,47.332365 77.5170684,52.6294704 71.8295241,66.7775161 C71.7404354,66.9900823 71.6638785,67.1971923 71.592562,67.4156695 C71.4957266,67.6827982 71.3975241,67.9506089 71.3182329,68.224558" id="Fill-15" fill="#FF4200"></path>
                    <g transform="translate(102.7226, 47.5633)">
                        <mask id="mask-6" fill="white">
                            <use xlink:href="#path-5"></use>
                        </mask>
                        <g id="Clip-18"></g>
                        <path d="M0,26.335253 C0,26.335253 19.3153671,34.7237764 24.7848608,33.4210977 C30.2525316,32.1268307 50.4537722,8.22824619 36.3868861,2.94750951 C31.6100506,1.15240461 24.4825063,0.0893460269 16.6019241,0 C12.885038,10.7222053 5.0641519,23.9636047 2.68222785,25.6232129 C1.98136709,26.1097281 1.05037975,26.3200209 0,26.335253" id="Fill-17" fill="#FFC400" mask="url(#mask-6)"></path>
                    </g>
                    <path d="M90.9604025,70.1597975 C96.9145291,83.0224425 99.299643,88.9090498 96.9689848,96.0440007 C95.3975165,100.855955 91.9718203,107.131774 87.6449848,111.897805 C104.787137,116.835481 118.15658,107.118134 120.621668,99.5735098 C122.444681,93.9926796 115.709947,86.6624406 102.722377,73.8989173 C98.0332633,73.966893 90.9604025,70.1597975 90.9604025,70.1597975" id="Fill-19" fill="#FF9300"></path>
                </g>
            </g>
        </g>
    </g>
</svg>