<?xml version="1.0" encoding="UTF-8"?>
<svg width="36px" height="36px" viewBox="0 0 36 36" version="1.1" xmlns="http://www.w3.org/2000/svg" xmlns:xlink="http://www.w3.org/1999/xlink">
    <title>暂停</title>
    <g id="页面-1" stroke="none" stroke-width="1" fill="none" fill-rule="evenodd">
        <g id="首页" transform="translate(-1812, -778)" fill="#FFFFFF">
            <g id="暂停" transform="translate(1812, 778)">
                <circle id="椭圆形" stroke="#FFFFFF" stroke-width="2" fill-opacity="0" cx="18" cy="18" r="17"></circle>
                <path d="M13.5,11 C14.3284271,11 15,11.6715729 15,12.5 L15,23.5 C15,24.3284271 14.3284271,25 13.5,25 C12.6715729,25 12,24.3284271 12,23.5 L12,12.5 C12,11.6715729 12.6715729,11 13.5,11 Z" id="矩形"></path>
                <path d="M22.5,11 C23.3284271,11 24,11.6715729 24,12.5 L24,23.5 C24,24.3284271 23.3284271,25 22.5,25 C21.6715729,25 21,24.3284271 21,23.5 L21,12.5 C21,11.6715729 21.6715729,11 22.5,11 Z" id="矩形备份-2"></path>
            </g>
        </g>
    </g>
</svg>