<?xml version="1.0" standalone="no"?><!DOCTYPE svg PUBLIC "-//W3C//DTD SVG 1.1//EN" "http://www.w3.org/Graphics/SVG/1.1/DTD/svg11.dtd"><svg t="1697577856006" class="icon" viewBox="0 0 1024 1024" version="1.1" xmlns="http://www.w3.org/2000/svg" p-id="146752" xmlns:xlink="http://www.w3.org/1999/xlink" width="48" height="48"><path d="M308.4288 176.8448c-0.7168 0-1.4336 0.1024-2.1504 0.1024-23.8592 1.024-52.9408 18.8416-88.7808 54.6816C74.4448 374.784 357.2736 660.992 360.1408 663.8592c2.8672 2.7648 288.9728 285.9008 432.2304 142.6432 35.84-35.84 53.6576-64.8192 54.6816-88.6784 0.8192-22.016-11.9808-44.9536-41.6768-74.752-29.4912-29.4912-54.0672-43.4176-74.5472-41.5744-18.7392 1.8432-38.7072 18.3296-59.2896 49.0496-18.6368 31.1296-44.3392 40.6528-62.3616 42.9056-47.104 6.0416-102.8096-26.4192-177.4592-101.0688-74.6496-74.752-106.8032-131.1744-101.0688-177.3568 2.2528-18.1248 11.6736-43.8272 44.1344-63.2832 29.5936-19.8656 46.08-39.8336 47.9232-58.5728 1.9456-19.968-12.0832-45.056-41.6768-74.6496-28.7744-28.672-51.3024-41.6768-72.6016-41.6768m385.1264 727.1424c-171.1104 0-363.3152-189.6448-373.6576-199.9872-13.312-13.312-325.5296-329.728-142.6432-512.6144 47.0016-47.0016 87.2448-69.7344 126.6688-71.3728 52.6336-1.9456 91.3408 32.256 117.248 58.2656 42.8032 42.7008 61.7472 82.1248 58.0608 120.4224-3.6864 36.9664-27.8528 70.0416-74.0352 101.0688-14.848 8.9088-17.3056 16.4864-18.1248 22.2208-1.8432 15.0528 6.7584 52.0192 84.8896 130.2528 78.1312 78.0288 115.0976 86.3232 130.2528 84.8896 5.7344-0.7168 13.2096-3.2768 21.4016-16.896 31.8464-47.4112 64.8192-71.68 101.7856-75.264 37.6832-4.3008 77.5168 15.1552 120.32 57.9584 26.0096 26.0096 60.416 66.4576 58.2656 117.3504-1.6384 39.3216-24.2688 79.5648-71.3728 126.5664-41.2672 41.0624-89.2928 57.1392-139.0592 57.1392" fill="#7B7B7C" p-id="146753"></path></svg>