<?xml version="1.0" encoding="UTF-8"?>
<svg width="28px" height="28px" viewBox="0 0 28 28" version="1.1" xmlns="http://www.w3.org/2000/svg" xmlns:xlink="http://www.w3.org/1999/xlink">
    <title>icon/play</title>
    <g id="pc端" stroke="none" stroke-width="1" fill="none" fill-rule="evenodd">
        <g id="中国_首页" transform="translate(-1532, -4074)">
            <g id="编组-18" transform="translate(310, 3226)">
                <g id="icon/play" transform="translate(1222.75, 848.75)">
                    <path d="M13.25,26.5 C20.5677729,26.5 26.5,20.5677729 26.5,13.25 C26.5,5.93222707 20.5677729,0 13.25,0 C5.93222707,0 0,5.93222707 0,13.25 C0,20.5677729 5.93222707,26.5 13.25,26.5 Z" id="椭圆形" stroke="#111111" stroke-width="1.5" fill-opacity="0" fill="#FFFFFF"></path>
                    <rect id="矩形" fill="#2A62D0" opacity="0" x="7.75" y="7.75" width="11" height="11"></rect>
                    <g transform="translate(7.75, 7.25)">
                        <rect id="矩形" fill="#2A62D0" opacity="0" x="0" y="0.5" width="11" height="11"></rect>
                        <path d="M1.75,1.74409498 L1.75,10.255905 C1.75,10.8081898 2.19771525,11.255905 2.75,11.255905 C2.92756862,11.255905 3.10193491,11.2086235 3.2551792,11.1189195 L10.5256836,6.86301447 C11.0023133,6.5840117 11.1625217,5.97145053 10.8835189,5.4948208 C10.7968932,5.34683527 10.6736691,5.22361121 10.5256836,5.13698553 L3.2551792,0.881080508 C2.77854947,0.602077739 2.1659883,0.762286046 1.88698553,1.23891578 C1.79728156,1.39216006 1.75,1.56652636 1.75,1.74409498 Z" id="路径-7" fill="#111111"></path>
                    </g>
                </g>
            </g>
        </g>
    </g>
</svg>