<?xml version="1.0" encoding="UTF-8"?>
<svg width="14px" height="14px" viewBox="0 0 14 14" version="1.1" xmlns="http://www.w3.org/2000/svg" xmlns:xlink="http://www.w3.org/1999/xlink">
    <title>icon_search_normal</title>
    <g id="pc端" stroke="none" stroke-width="1" fill="none" fill-rule="evenodd" fill-opacity="0.769695149">
        <g id="中国_关于" transform="translate(-1537, -21)" fill="#111111" fill-rule="nonzero">
            <g id="icon_search_normal" transform="translate(1537, 21)">
                <path d="M5.5,0 C8.53756612,0 11,2.46243388 11,5.5 C11,6.83034444 10.5276746,8.05037138 9.74157022,9.00153441 C9.91443038,9.00681247 10.0865428,9.07639024 10.219362,9.20920944 L13.7907906,12.780638 C14.0697365,13.0595839 14.0697365,13.5118446 13.7907906,13.7907906 C13.5118446,14.0697365 13.0595839,14.0697365 12.780638,13.7907906 L9.20920944,10.219362 C9.07639024,10.0865428 9.00681247,9.91443038 9.00047614,9.74044345 C8.05037138,10.5276746 6.83034444,11 5.5,11 C2.46243388,11 0,8.53756612 0,5.5 C0,2.46243388 2.46243388,0 5.5,0 Z M5.5,1 C3.01471863,1 1,3.01471863 1,5.5 C1,7.98528137 3.01471863,10 5.5,10 C7.98528137,10 10,7.98528137 10,5.5 C10,3.01471863 7.98528137,1 5.5,1 Z" id="形状结合"></path>
            </g>
        </g>
    </g>
</svg>