<?xml version="1.0" encoding="UTF-8"?>
<svg width="28px" height="28px" viewBox="0 0 28 28" version="1.1" xmlns="http://www.w3.org/2000/svg" xmlns:xlink="http://www.w3.org/1999/xlink">
    <title>编组 16备份 3</title>
    <g id="pc端" stroke="none" stroke-width="1" fill="none" fill-rule="evenodd">
        <g id="中国_新闻详情" transform="translate(-636, -530)">
            <g id="编组-3" transform="translate(594, 530)">
                <g id="编组-16备份-3" transform="translate(42, 0)">
                    <rect id="矩形" fill-opacity="0.37" fill="#FF0000" opacity="0" x="0" y="0" width="28" height="28"></rect>
                    <path d="M21.9185204,20.2039791 C23.1883414,19.2934857 24,17.9464157 24,16.4499849 C24,13.7067816 21.3028096,11.4833021 17.9758653,11.4833021 C14.6489209,11.4833021 11.95195,13.7067816 11.95195,16.4499849 C11.95195,19.192971 14.6489209,21.4164506 17.9758653,21.4164506 C18.6633285,21.4164506 19.3268741,21.3194094 19.942146,21.1442144 C19.9980998,21.127281 20.0575643,21.1181631 20.1194426,21.1181631 C20.2348609,21.1181631 20.3401857,21.1528981 20.439147,21.2097768 L21.7579002,21.9628769 C21.7947638,21.983935 21.8303109,22 21.8739768,22 C21.9850066,22 22.074752,21.9109913 22.074752,21.8011416 C22.074752,21.7522954 22.0550036,21.703015 22.0424963,21.6561227 C22.0348164,21.6281175 21.8722214,21.0285031 21.7710658,20.6542326 C21.7594362,20.6123334 21.7500008,20.5717368 21.7500008,20.5276666 C21.7500008,20.3941537 21.816487,20.2760544 21.9185204,20.2039791 M15.9676741,15.6554198 C15.5244326,15.6554198 15.1647926,15.2996023 15.1647926,14.8606377 C15.1647926,14.4216731 15.5244326,14.0658555 15.9676741,14.0658555 C16.4115739,14.0658555 16.7709945,14.4216731 16.7709945,14.8606377 C16.7709945,15.2996023 16.4115739,15.6554198 15.9676741,15.6554198 M11.2287861,6 C14.8352798,6 17.824088,8.17745557 18.3684851,11.024647 C18.2383652,11.0183513 18.1078064,11.0142265 17.9759311,11.0142265 C14.334768,11.0142265 11.3830429,13.4480704 11.3830429,16.4498329 C11.3830429,16.9560968 11.4688387,17.4458614 11.6259481,17.9106603 C11.4942922,17.9165218 11.3621974,17.9199953 11.2287861,17.9199953 C10.403962,17.9199953 9.60766325,17.8031986 8.86929313,17.5932684 C8.8019292,17.5728616 8.73061559,17.5617898 8.65666886,17.5617898 C8.51799133,17.5617898 8.39204052,17.603689 8.27289194,17.6716395 L6.69038813,18.57562 C6.64628341,18.600803 6.60327582,18.6201244 6.55105231,18.6201244 C6.41786044,18.6201244 6.31012203,18.5135311 6.31012203,18.3817549 C6.31012203,18.3227052 6.33382009,18.2638727 6.34896052,18.2074282 C6.35817643,18.1735614 6.55302715,17.4543281 6.67458943,17.0053772 C6.68841329,16.9547942 6.7000429,16.9061651 6.7000429,16.8534112 C6.7000429,16.6929785 6.62017166,16.551433 6.49773168,16.4648124 C4.97359531,15.372394 4,13.7559101 4,11.9601062 C4,8.66852282 7.23632123,6 11.2287861,6 Z M19.983837,14.0658555 C20.4275174,14.0658555 20.786938,14.4216731 20.786938,14.8606377 C20.786938,15.2996023 20.4275174,15.6554198 19.983837,15.6554198 C19.5403761,15.6554198 19.1807361,15.2996023 19.1807361,14.8606377 C19.1807361,14.4216731 19.5403761,14.0658555 19.983837,14.0658555 Z M8.81904446,9.09923786 C8.28693524,9.09923786 7.85532334,9.52604521 7.85532334,10.0527159 C7.85532334,10.5796037 8.28693524,11.0064111 8.81904446,11.0064111 C9.35159254,11.0064111 9.78298501,10.5796037 9.78298501,10.0527159 C9.78298501,9.52604521 9.35159254,9.09923786 8.81904446,9.09923786 Z M13.6385278,9.09923786 C13.1059797,9.09923786 12.6745872,9.52604521 12.6745872,10.0527159 C12.6745872,10.5796037 13.1059797,11.0064111 13.6385278,11.0064111 C14.1708564,11.0064111 14.6024683,10.5796037 14.6024683,10.0527159 C14.6024683,9.52604521 14.1708564,9.09923786 13.6385278,9.09923786 Z" id="Combined-Shape" fill-opacity="0.769695149" fill="#111111"></path>
                </g>
            </g>
        </g>
    </g>
</svg>