<?xml version="1.0" encoding="UTF-8"?>
<svg width="28px" height="28px" viewBox="0 0 28 28" version="1.1" xmlns="http://www.w3.org/2000/svg" xmlns:xlink="http://www.w3.org/1999/xlink">
    <title>编组 16备份 4</title>
    <g id="pc端" stroke="none" stroke-width="1" fill="none" fill-rule="evenodd">
        <g id="中国_新闻详情" transform="translate(-678, -530)">
            <g id="编组-3" transform="translate(594, 530)">
                <g id="编组-16备份-4" transform="translate(84, 0)">
                    <rect id="矩形" fill-opacity="0.37" fill="#FF0000" opacity="0" x="0" y="0" width="28" height="28"></rect>
                    <path d="M23.7445008,12.8391964 L23.7445008,12.8414215 C23.648328,13.1329118 23.3844119,13.3376225 23.0757643,13.3620987 C22.7671167,13.386575 22.4741251,13.2241415 22.3332208,12.9526773 C22.2415211,12.774668 22.2236285,12.5677322 22.2862527,12.3763722 L22.2840161,12.3763722 C22.7000194,11.1125062 22.4003181,9.72625878 21.496741,8.73830717 C20.5976371,7.75258067 19.2310886,7.31423277 17.9137449,7.5923723 C17.7146895,7.63464951 17.5066879,7.59682254 17.336708,7.48779184 C17.1667282,7.37876114 17.045953,7.20742719 17.0034581,7.01161696 C16.9162316,6.60442069 17.1801476,6.20167465 17.5939144,6.11489512 C19.3809393,5.73885047 21.3200515,6.28845418 22.6329221,7.72587928 C23.9502659,9.16107926 24.303645,11.1191816 23.7445008,12.8391964 L23.7445008,12.8391964 Z M18.4393404,10.0110737 C18.2693606,10.0466755 18.0904344,10.0155239 17.9428204,9.9198439 C17.7952063,9.82638902 17.6945603,9.67953134 17.6565385,9.51042251 C17.5804949,9.15885414 17.8063892,8.81396112 18.1642415,8.73830717 C19.065582,8.54694717 20.0027077,8.84511275 20.6200029,9.52154809 C21.2619005,10.2224597 21.4318803,11.1770346 21.1590179,12.0136783 C21.1053401,12.1783369 20.9890381,12.314069 20.8324777,12.391948 C20.6759173,12.4698271 20.4947546,12.4854029 20.3292479,12.4320001 C19.9825785,12.3207443 19.7924694,11.9536001 19.9065349,11.6131574 L19.9042983,11.6131574 C20.0429661,11.1903853 19.9445567,10.725336 19.6426188,10.3937937 C19.3362078,10.0644765 18.8799461,9.91761878 18.4393404,10.0110737 Z M19.0253236,13.7025415 C20.1726875,14.0541099 21.4497729,14.9041043 21.4497729,16.3993824 C21.4497729,18.8781619 17.8309915,22 12.3916365,22 C8.24278637,22 4,20.0129712 4,16.7465005 C4,15.0376113 5.09592268,13.0639332 6.981357,11.1992857 C9.49974258,8.71160578 12.4386046,7.57902161 13.5434736,8.67155368 C14.0310474,9.15217879 14.0780155,9.98659739 13.7648947,10.9812243 C13.6016246,11.4818755 14.2412856,11.203736 14.2412856,11.2059611 C16.2765706,10.362642 18.0546492,10.3136895 18.7032565,11.2304374 C19.0476893,11.7177378 19.0163773,12.4030736 18.6965468,13.1974401 C18.5489327,13.5623592 18.7412783,13.6179871 19.0253236,13.7025415 Z M12.4005828,20.8295889 C15.7107166,20.506947 18.2223925,18.5043424 18.0076811,16.3548801 C17.7929697,14.209868 14.9346244,12.7301657 11.6244906,13.0528076 C8.31435683,13.3754494 5.80268098,15.3802792 6.01739236,17.5252912 C6.23210374,19.6747535 9.09044901,21.1522307 12.4005828,20.8295889 Z M12.7315962,14.7082941 C14.3620607,15.1243908 15.1940674,16.6441452 14.5275674,18.1193973 C13.8521212,19.6302512 11.9085359,20.4335182 10.2601787,19.9083907 C8.66773598,19.4010642 7.99452633,17.8479331 8.69233832,16.448335 C9.37673085,15.0776634 11.1570461,14.3033229 12.7315962,14.7082941 L12.7315962,14.7082941 Z M11.5283178,18.2796056 C11.8436752,17.770054 11.6781685,17.1870736 11.1592826,16.9690122 C10.6471065,16.7576261 9.98284319,16.9756875 9.66748585,17.4652131 C9.34765535,17.9569638 9.497506,18.5443945 10.0074455,18.7713563 C10.5240948,19.0049935 11.2084873,18.7824819 11.5283178,18.2796056 Z" id="形状" fill-opacity="0.769695149" fill="#111111" fill-rule="nonzero"></path>
                </g>
            </g>
        </g>
    </g>
</svg>